<?xml version="1.0" encoding="utf-8"?>
<!-- Generator: Adobe Illustrator 21.0.0, SVG Export Plug-In . SVG Version: 6.00 Build 0)  -->
<svg version="1.1" id="Layer_1" xmlns="http://www.w3.org/2000/svg" xmlns:xlink="http://www.w3.org/1999/xlink" x="0px" y="0px"
	 viewBox="0 0 595.3 841.9" style="enable-background:new 0 0 595.3 841.9;" xml:space="preserve">
<style type="text/css">
	.st0{fill:#FFFFFF;}
</style>
<g>
	<path class="st0" d="M101.3,484.5c-6.6,1.4-12-1.3-17.2-4.7c-6-3.9-10.9-1.4-11.2,5.8c-0.9,23.4,1.1,46.6,7.2,69.3
		c16.5,61.1,61,93.6,117.6,93.6c50,0.1,100,0,150,0c0.7,0,1.3,0,2-0.1c4.3-0.3,7.3-2.3,8.3-6.6c1-4.4-0.3-8-4.4-10.1
		c-3.4-1.8-6.8-3.5-10.3-4.9c-9.3-3.7-17.3-9.2-24.2-16.4c-5-5.2-7.5-11-4.8-18.1c2.7-7.1,8.5-10,15.7-10.2
		c10.1-0.2,20.3-0.5,30.4-0.2c12.3,0.4,17.9-6.9,13.1-18.1c-3.3-7.8-6.8-15.6-11.2-22.8c-19.4-31.7-39.1-63.1-58.7-94.6
		c-1-1.5-2.5-3.3-2.4-4.8c0.2-2.9,0.9-6.2,2.5-8.5c2.1-2.8,5.6-2.6,8.6-0.8c1,0.6,2,1.3,2.9,1.9c29.7,22,59.4,44,89,66.1
		c6.1,4.5,10.5,3,12.2-4.5c1.2-5.4,2.5-10.7,3.8-16c1.1-4.3,3.3-7.7,7.9-8.8c4.7-1.1,8.7,0.6,11.3,4.6c6,9.1,12.3,18.1,17.5,27.7
		c4.3,8,9.2,15.1,16.7,20.1c2.3,1.6,5.9,2.8,8.4,2.1c3.8-0.9,2.7-5,2.9-8.1c0.7-11.4,1.4-22.9,2.4-34.3c0.4-4.4,2.8-7.9,7.8-8.5
		c4.9-0.6,7.9,1.9,9.9,6c3.5,7.3,7.2,14.6,10.6,22c1.3,2.8,2.9,5.6,6.1,4.2c1.8-0.8,2.5-4,3.6-6.2c0.3-0.7,0.1-1.6,0.1-2.5
		c0-58.7,0.1-117.3-0.1-176c0-8.1-0.3-16.4-1.5-24.4c-3.2-21.4-10.8-41.1-27.2-55.9c-14-12.7-28.4-24.7-36.8-42.2
		c-0.5-1-2.5-2.2-3.5-2c-1.3,0.3-2.8,1.7-3.3,3c-0.8,2.1-1,4.5-1.3,6.8c-1.5,10.1-4.9,12.2-14.6,9.3c-21.2-6.4-42.7-7.5-63.9-0.7
		c-10.4,3.3-20.1,8.7-29.8,13.6c-1.9,1-3.9,4.7-3.5,6.7c0.4,2,3.6,3.5,5.8,5c0.7,0.5,1.9,0.4,2.9,0.6c37.3,7.4,66.5,26.2,85,60.2
		c1.6,2.9,3.1,6,3.9,9.1c3.1,12-4.3,21.3-15.8,19.5c-3.3-0.5-6.2-2.9-9.4-4.3c-1.7-0.7-3.7-1.7-5.2-1.2c-0.9,0.3-1.5,3.1-1.4,4.7
		c0.8,9.9,5.1,18.5,11.1,26.3c2.7,3.6,5.5,7.2,7.5,11.1c12,23.9-0.4,50.5-25.6,55c-21.8,3.9-37.7-8.7-39-30.9
		c-0.2-3.2-0.4-6.3-0.8-9.5c-2.2-16.5-8.9-30.6-22.6-40.7c-2.6-1.9-5.7-4.2-8.4-1.4c-1.7,1.8-2.1,5.2-2.3,7.9
		c-0.3,4.3,0.6,8.7,0.2,12.9c-0.8,8.4-6,13.4-14.3,13.9c-6.6,0.4-12.3-2.1-17.4-6.3c-52.5-43.4-105-86.8-157.6-130.3
		c-16.1-13.3-32.1-26.6-48.2-39.8c-4.7-3.8-9.3-3.7-13-0.1c-3.6,3.6-3.7,8.5-0.4,13.2c1,1.4,2,2.7,3,4c38,45.7,76.3,91.3,114,137.3
		c19.5,23.8,38.2,48.3,57.2,72.6c4.5,5.7,6.3,12.4,5.8,19.7c-0.7,8.6-6.6,16.1-14.3,17.9c-8.6,2.1-17.3-1.6-21.8-9.4
		c-1.1-1.9-1.7-4-2.9-5.8c-0.8-1.2-2.5-2.7-3.6-2.5c-1.2,0.2-2.5,2-2.9,3.3c-0.7,2.4-0.8,4.9-1,7.4c-2.5,25.1,17.9,45.1,43,42.4
		c6.8-0.7,13.6-1.3,20.4-1.3c9.6,0,17.3,4.3,23,12c10.3,13.9,7.4,31.6-7,44c-18.6,15.9-45.7,16.1-67.5,0.5
		c-12.4-8.9-20.8-20.9-27.3-34.5c-2.4-5.1-7-7.2-10.8-4.5c-2,1.4-3.7,4-4.3,6.4c-2.6,9.8-9.6,11.1-16.9,3.6
		c-11.9-12.3-19.4-26.9-24-43.2c-5-17.5-6.5-35.3-6.1-53.4c0.1-4.8-1.3-8.7-6.4-10c-5.2-1.3-8,1.8-10.1,6c-5.9,11.7-9.9,24-11.4,37
		C102.1,468.7,101.8,476.5,101.3,484.5z M513.7,580.5c-0.8-6.7-1.1-11.2-1.9-15.6c-1-5.2-2.3-10.4-4-15.4c-0.6-1.9-2.8-4.4-4.4-4.5
		c-1.9-0.1-5,1.4-5.9,3.2c-3.7,7-7.5,14.1-10,21.5c-2.8,8.5-2.1,17.5,1,26c1.6,4.5,3.8,8.7,9.4,9.2c5.8,0.5,9.1-3.4,10.9-7.9
		C511.1,591.1,512.4,584.7,513.7,580.5z M428.7,628.3c2.6-0.4,5.3-0.5,7.8-1.4c3.7-1.3,5-4.2,3.8-8c-4.6-14.3-24-29.5-39.1-30.7
		c-4.3-0.4-7.4,2.5-7.2,6.9C394.7,612.7,410.8,628,428.7,628.3z M184.1,435.2c-0.7-13.2-8.7-23.6-19.9-32c-1.2-0.9-4.3-1-5.3-0.1
		c-1.3,1.1-2.2,3.8-1.9,5.6c2.4,16.8,5,33.5,7.8,50.2c0.3,1.7,1.8,3.9,3.2,4.4c1.4,0.5,4-0.4,5.2-1.6
		C179.7,454.8,183.8,446.5,184.1,435.2z M312.9,315.6c0-7.5-7.4-17.5-15.6-20.4c-7.9-2.7-15.9-5-23.8-7.3c-3.6-1.1-5.7,0.7-5.1,4.3
		c1.6,10.2,6.2,18.3,16.7,21.7c7.1,2.3,14.3,4.3,21.5,6.4C310,321.4,312.9,319.2,312.9,315.6z M390,294.4c0-5.6-4.5-10.4-9.9-10.4
		c-5.4,0-10,4.9-10,10.4c0.1,5.3,4.5,10,9.7,10.1C385.3,304.8,390,300.1,390,294.4z"/>
	<path d="M101.3,484.5c0.6-8,0.8-15.8,1.7-23.5c1.5-13,5.5-25.3,11.4-37c2.2-4.3,5-7.3,10.1-6c5.1,1.3,6.5,5.2,6.4,10
		c-0.4,18.1,1.1,35.9,6.1,53.4c4.6,16.2,12.1,30.9,24,43.2c7.3,7.5,14.2,6.3,16.9-3.6c0.6-2.4,2.4-4.9,4.3-6.4
		c3.7-2.7,8.3-0.6,10.8,4.5c6.5,13.6,14.9,25.6,27.3,34.5c21.8,15.6,48.9,15.4,67.5-0.5c14.4-12.4,17.3-30.1,7-44
		c-5.7-7.7-13.4-12-23-12c-6.8,0-13.6,0.6-20.4,1.3c-25.1,2.7-45.5-17.4-43-42.4c0.2-2.5,0.3-5,1-7.4c0.4-1.4,1.8-3.2,2.9-3.3
		c1.1-0.2,2.8,1.3,3.6,2.5c1.2,1.7,1.8,3.9,2.9,5.8c4.6,7.8,13.2,11.5,21.8,9.4c7.8-1.8,13.7-9.3,14.3-17.9
		c0.6-7.3-1.3-13.9-5.8-19.7c-19-24.3-37.6-48.8-57.2-72.6c-37.7-46-76-91.5-114-137.3c-1.1-1.3-2.1-2.6-3-4
		c-3.3-4.7-3.2-9.6,0.4-13.2c3.6-3.6,8.3-3.7,13,0.1c16.1,13.2,32.1,26.5,48.2,39.8c52.5,43.4,105.1,86.8,157.6,130.3
		c5.1,4.2,10.8,6.6,17.4,6.3c8.3-0.4,13.5-5.4,14.3-13.9c0.4-4.3-0.5-8.6-0.2-12.9c0.2-2.7,0.6-6.1,2.3-7.9c2.7-2.8,5.8-0.5,8.4,1.4
		c13.7,10.1,20.4,24.2,22.6,40.7c0.4,3.1,0.6,6.3,0.8,9.5c1.3,22.2,17.2,34.8,39,30.9c25.2-4.5,37.7-31.1,25.6-55
		c-2-4-4.8-7.6-7.5-11.1c-6-7.8-10.2-16.4-11.1-26.3c-0.1-1.6,0.5-4.4,1.4-4.7c1.5-0.4,3.5,0.5,5.2,1.2c3.2,1.3,6.1,3.8,9.4,4.3
		c11.5,1.8,18.9-7.5,15.8-19.5c-0.8-3.2-2.4-6.2-3.9-9.1c-18.5-34-47.7-52.8-85-60.2c-1-0.2-2.2-0.1-2.9-0.6c-2.1-1.5-5.4-3-5.8-5
		c-0.4-2,1.6-5.7,3.5-6.7c9.7-5,19.5-10.3,29.8-13.6c21.2-6.7,42.7-5.7,63.9,0.7c9.7,2.9,13.1,0.8,14.6-9.3c0.3-2.3,0.5-4.7,1.3-6.8
		c0.5-1.3,2-2.7,3.3-3c1-0.2,3,0.9,3.5,2c8.4,17.5,22.8,29.6,36.8,42.2c16.4,14.8,23.9,34.6,27.2,55.9c1.2,8,1.5,16.3,1.5,24.4
		c0.1,58.7,0.1,117.3,0.1,176c0,0.8,0.3,1.8-0.1,2.5c-1,2.2-1.8,5.3-3.6,6.2c-3.2,1.5-4.8-1.4-6.1-4.2c-3.5-7.4-7.1-14.7-10.6-22
		c-2-4.1-5-6.6-9.9-6c-5,0.6-7.4,4.1-7.8,8.5c-1.1,11.4-1.7,22.8-2.4,34.3c-0.2,3.1,0.8,7.2-2.9,8.1c-2.5,0.6-6.1-0.6-8.4-2.1
		c-7.5-5-12.4-12.1-16.7-20.1c-5.2-9.6-11.5-18.6-17.5-27.7c-2.6-3.9-6.6-5.7-11.3-4.6c-4.6,1.1-6.8,4.5-7.9,8.8
		c-1.3,5.3-2.6,10.7-3.8,16c-1.7,7.5-6.1,9-12.2,4.5c-29.6-22.1-59.3-44.1-89-66.1c-0.9-0.7-1.9-1.4-2.9-1.9c-3.1-1.8-6.6-2-8.6,0.8
		c-1.7,2.2-2.3,5.5-2.5,8.5c-0.1,1.5,1.4,3.3,2.4,4.8c19.6,31.5,39.4,63,58.7,94.6c4.4,7.2,7.9,15,11.2,22.8
		c4.8,11.2-0.8,18.5-13.1,18.1c-10.1-0.3-20.3,0-30.4,0.2c-7.2,0.2-13,3.1-15.7,10.2c-2.7,7.1-0.2,12.9,4.8,18.1
		c6.9,7.2,14.9,12.7,24.2,16.4c3.5,1.4,7,3.2,10.3,4.9c4.1,2.2,5.4,5.8,4.4,10.1c-1,4.3-4,6.3-8.3,6.6c-0.7,0-1.3,0.1-2,0.1
		c-50,0-100,0-150,0c-56.6-0.1-101.1-32.5-117.6-93.6c-6.1-22.7-8.1-45.9-7.2-69.3c0.3-7.2,5.2-9.7,11.2-5.8
		C89.3,483.2,94.7,485.8,101.3,484.5z M288.5,404.5c-1.9-3.5-2.7-6.4-4.7-8.1c-15.2-13.4-30.6-26.7-46.1-39.8c-1.2-1-4-0.3-6.1-0.3
		c0,2.1-0.6,4.5,0.3,6.2c1.5,2.7,3.9,4.9,5.9,7.4c11,13.1,22,26.3,33,39.4c2.9,3.5,6.7,5.2,10.6,3.1
		C284.3,410.8,286.1,407.4,288.5,404.5z M497.4,367.3c0-0.2,0-1-0.2-1.8c-2.3-9.3-4.5-18.7-7-28c-0.9-3.4-3.5-3.8-6.5-1.1
		c-8.2,7.2-11.4,16.1-8.5,26.8c1.9,6.9,3.8,13.7,5.7,20.6c1.3,4.7,5.1,5.8,8.6,2.3C494.5,381.2,497.4,375.2,497.4,367.3z
		 M260.1,614.8c-0.1-7-6.1-12.8-13.2-12.9c-6.5-0.1-11.1,4.5-11.1,10.9c0.1,6.9,6.2,12.9,13.2,13C255.3,625.8,260.1,621,260.1,614.8
		z"/>
	<path d="M513.7,580.5c-1.3,4.3-2.6,10.6-5,16.5c-1.8,4.5-5.1,8.4-10.9,7.9c-5.5-0.5-7.8-4.7-9.4-9.2c-3-8.5-3.8-17.5-1-26
		c2.5-7.5,6.3-14.6,10-21.5c0.9-1.7,4-3.3,5.9-3.2c1.6,0.1,3.8,2.6,4.4,4.5c1.7,5,3,10.2,4,15.4
		C512.6,569.3,512.9,573.8,513.7,580.5z"/>
	<path d="M428.7,628.3c-17.9-0.3-34-15.6-34.7-33.2c-0.2-4.3,2.9-7.2,7.2-6.9c15.1,1.2,34.5,16.5,39.1,30.7c1.2,3.8-0.1,6.7-3.8,8
		C434,627.8,431.3,627.8,428.7,628.3z"/>
	<path d="M184.1,435.2c-0.4,11.3-4.4,19.5-11,26.5c-1.1,1.2-3.8,2.1-5.2,1.6c-1.4-0.5-2.9-2.7-3.2-4.4c-2.8-16.7-5.4-33.5-7.8-50.2
		c-0.3-1.8,0.6-4.4,1.9-5.6c1-0.9,4.1-0.8,5.3,0.1C175.4,411.6,183.4,422,184.1,435.2z"/>
	<path d="M312.9,315.6c0,3.5-2.9,5.7-6.5,4.7c-7.2-2.1-14.4-4.1-21.5-6.4c-10.4-3.4-15.1-11.5-16.7-21.7c-0.6-3.6,1.5-5.4,5.1-4.3
		c8,2.3,16,4.6,23.8,7.3C305.5,298.1,312.9,308.1,312.9,315.6z"/>
	<path d="M390,294.4c0,5.6-4.7,10.3-10.1,10.1c-5.2-0.2-9.6-4.8-9.7-10.1c-0.1-5.5,4.6-10.4,10-10.4
		C385.5,284.1,390.1,288.8,390,294.4z"/>
	<path class="st0" d="M288.5,404.5c-2.5,2.8-4.2,6.2-7,7.8c-3.8,2.1-7.7,0.4-10.6-3.1c-11-13.2-22-26.3-33-39.4
		c-2-2.4-4.5-4.6-5.9-7.4c-0.9-1.6-0.3-4.1-0.3-6.2c2.1,0.1,4.8-0.7,6.1,0.3c15.5,13.1,30.9,26.3,46.1,39.8
		C285.8,398.1,286.6,401,288.5,404.5z"/>
	<path class="st0" d="M497.4,367.3c0,7.8-2.9,13.9-7.9,18.9c-3.5,3.4-7.3,2.3-8.6-2.3c-1.9-6.9-3.8-13.7-5.7-20.6
		c-2.9-10.8,0.3-19.6,8.5-26.8c3-2.7,5.6-2.3,6.5,1.1c2.5,9.3,4.7,18.6,7,28C497.4,366.3,497.4,367.1,497.4,367.3z"/>
	<path class="st0" d="M260.1,614.8c0,6.2-4.8,11-11.1,11c-7-0.1-13.1-6.1-13.2-13c0-6.4,4.6-10.9,11.1-10.9
		C254,601.9,260,607.8,260.1,614.8z"/>
</g>
</svg>
