<svg width="32" height="56" viewBox="0 0 32 56" fill="none" xmlns="http://www.w3.org/2000/svg">
<path fill-rule="evenodd" clip-rule="evenodd" d="M16.4811 0.418426C16.5963 0.66434 16.9281 1.61759 16.9566 1.78514C16.9718 1.87394 17.0437 2.0275 17.1164 2.12632C17.2364 2.2894 17.2664 2.30275 17.4408 2.27034C17.8372 2.19661 18.3371 1.79816 18.6573 1.30074C18.8371 1.02124 18.8885 0.987597 18.9687 1.09675C19.0547 1.21376 19.0502 1.48104 18.9594 1.64789C18.9199 1.72039 18.8986 1.80887 18.912 1.8445C18.9255 1.88013 18.8872 2.00753 18.8269 2.12761C18.7667 2.24774 18.7174 2.38359 18.7174 2.4296C18.7174 2.47557 18.6949 2.55528 18.6674 2.60668C18.6399 2.65808 18.5426 2.94232 18.4511 3.23834C18.3596 3.53436 18.2495 3.85649 18.2064 3.95423C18.1632 4.05197 18.1146 4.21543 18.0983 4.31753C18.082 4.41963 18.048 4.50316 18.0227 4.50316C17.9974 4.50316 17.9768 4.56 17.9768 4.62943C17.9768 4.69891 17.9425 4.82604 17.9007 4.912C17.8589 4.99795 17.773 5.26206 17.7098 5.49888C17.5957 5.92644 17.5949 5.96476 17.5951 10.9618C17.5956 19.9743 17.5942 19.8696 17.7116 20.0135L17.8136 20.1385L18.0671 19.9987C18.2154 19.9168 18.4363 19.7158 18.5993 19.5143C18.7526 19.3248 18.9725 19.0606 19.088 18.9272C19.2034 18.7937 19.3374 18.6242 19.3857 18.5504C19.434 18.4766 19.5013 18.392 19.5351 18.3624C19.5689 18.3328 19.7123 18.1633 19.8538 17.9857C19.9953 17.808 20.22 17.5459 20.3533 17.4031C20.4865 17.2603 20.6051 17.115 20.6167 17.0801C20.6284 17.0453 20.6536 17.0047 20.6727 16.9899C20.6919 16.9751 20.8465 16.7935 21.0163 16.5863C21.1861 16.3791 21.5299 15.9915 21.7804 15.7251C22.0308 15.4587 22.3062 15.135 22.3925 15.0058C22.4788 14.8767 22.5795 14.7592 22.6163 14.7449C22.6531 14.7305 22.7361 14.6303 22.8008 14.5222C22.9486 14.2754 23.381 13.6794 23.5722 13.4592C23.6518 13.3674 23.7527 13.2323 23.7964 13.159C24.0241 12.7766 24.0932 12.6848 24.1535 12.6845C24.1899 12.6843 24.2196 12.6649 24.2196 12.6413C24.2196 12.6177 24.2613 12.5427 24.3122 12.4746C24.4649 12.2705 24.7975 11.8558 24.8816 11.7647C24.9249 11.7178 24.9603 11.6511 24.9603 11.6166C24.9603 11.5821 24.9955 11.5539 25.0386 11.5539C25.0816 11.5539 25.1682 11.4509 25.2309 11.3251C25.3431 11.0999 25.9213 10.3484 26.1606 10.1167C26.2279 10.0515 26.2829 9.97205 26.2829 9.94013C26.2829 9.90822 26.396 9.76586 26.5342 9.62376C26.6724 9.48173 26.8332 9.30481 26.8914 9.23065C27.3022 8.70712 27.8291 8.05118 28.0365 7.805C28.3576 7.42394 28.3851 7.26053 28.2132 6.75681C28.1387 6.53856 28.0549 6.318 28.0268 6.2666C27.9988 6.2152 27.9759 6.12397 27.9759 6.06385C27.9759 5.94264 27.4937 4.96437 27.2066 4.50316C27.1053 4.34035 26.9993 4.12167 26.9712 4.01726C26.9431 3.91284 26.8253 3.66757 26.7095 3.4722C26.5937 3.27682 26.4602 3.0111 26.4129 2.88166C26.3656 2.75222 26.2812 2.55318 26.2255 2.43935C26.1698 2.32557 26.1242 2.18547 26.1242 2.12798C26.1242 1.9642 26.2579 2.06566 26.8436 2.67433C27.1318 2.97369 27.4508 3.25379 27.5527 3.29674C27.6635 3.34351 28.1307 3.77581 28.7166 4.37399C29.2549 4.92352 29.7579 5.40657 29.8344 5.44748C29.9109 5.48833 29.9875 5.55905 30.0047 5.60453C30.0219 5.65001 30.0591 5.68725 30.0874 5.68725C30.1615 5.68725 30.6189 6.15007 30.8767 6.48598C31.1539 6.84696 31.1723 7.06381 30.9407 7.23798C30.8547 7.30273 30.7654 7.35618 30.7424 7.35671C30.6558 7.35871 29.9334 8.3528 29.9334 8.46998C29.9334 8.49834 29.8745 8.64 29.8025 8.78473C29.7304 8.92946 29.656 9.18743 29.637 9.35794C29.6181 9.5285 29.584 9.65633 29.5613 9.64206C29.5386 9.6278 29.5319 9.66214 29.5463 9.71833C29.5608 9.77457 29.5459 9.87124 29.5134 9.93319C29.4808 9.99514 29.396 10.2789 29.325 10.5637C29.1861 11.1206 29.1285 11.231 28.9765 11.231C28.8224 11.231 28.7787 11.0724 28.8172 10.6524C28.8452 10.3467 28.8379 10.2622 28.7831 10.2622C28.7447 10.2622 28.7003 10.2966 28.6844 10.3387C28.6685 10.3808 28.574 10.4546 28.4744 10.5027C28.3167 10.5788 28.2932 10.6159 28.2922 10.7894C28.2896 11.2716 27.8296 12.2873 27.3807 12.8024C27.1954 13.0151 26.7143 13.33 26.5749 13.33C26.4333 13.33 26.1771 13.6412 26.1771 13.813C26.1771 13.8754 26.1322 14.0162 26.0772 14.1261C26.0223 14.2359 25.9621 14.4468 25.9435 14.5948C25.9039 14.9095 25.6323 15.5107 25.5077 15.5593C25.4603 15.5779 25.3624 15.5536 25.2901 15.5054C25.1813 15.4329 25.1508 15.4303 25.1132 15.4907C25.0882 15.5308 25.0674 15.5938 25.0669 15.6308C25.0665 15.6677 24.9869 15.7888 24.89 15.8999C24.646 16.1796 24.3964 16.5629 24.2528 16.8782C24.1692 17.0617 23.9665 17.304 23.5993 17.6591C23.0329 18.207 22.8735 18.2804 22.7295 18.0598C22.6568 17.9485 22.646 17.955 22.3059 18.3154C21.9803 18.6605 21.6814 19.0286 21.2724 19.5881C21.0956 19.8298 20.8292 20.4289 20.6922 20.8921C20.6485 21.0401 20.5702 21.2459 20.5184 21.3495C20.4247 21.5367 20.1147 21.8001 20.042 21.7544C20.021 21.7413 19.9271 21.8111 19.8333 21.9096C19.7021 22.0473 19.6805 22.0957 19.7399 22.1189C19.8025 22.1434 19.8119 22.2362 19.7892 22.6064L19.7612 23.0636L19.9667 23.3152C20.4134 23.8619 20.5973 24.0528 20.7602 24.1391C20.931 24.2295 21.8229 25.0592 22.8242 26.059C23.1206 26.355 23.5417 26.7513 23.76 26.9396C23.9782 27.128 24.2483 27.4182 24.3601 27.5846C24.603 27.9458 25.3025 28.6637 25.826 29.089C26.0337 29.2576 26.5488 29.7376 26.9707 30.1557C27.3926 30.5738 27.9402 31.1027 28.1875 31.3312C28.4349 31.5596 28.6799 31.83 28.732 31.9321C28.7841 32.0341 28.8457 32.1057 28.8689 32.0911C28.8921 32.0766 29.003 32.1605 29.1155 32.2777C29.228 32.3949 29.345 32.4915 29.3754 32.4925C29.4059 32.4935 29.5498 32.6146 29.6951 32.7616C29.8405 32.9086 29.9739 33.029 29.9917 33.029C30.0094 33.029 30.2595 33.2733 30.5474 33.572C30.8353 33.8707 31.1914 34.1969 31.3386 34.297C31.7984 34.6097 32.1317 35.0683 31.9491 35.137C31.8611 35.1701 31.4677 35.6903 31.4677 35.7735C31.4677 35.8188 31.4113 35.9176 31.3425 35.9931C31.2428 36.1025 31.2167 36.1919 31.2146 36.4317C31.2131 36.5993 31.1774 36.7888 31.1341 36.8589C31.0913 36.9282 31.0269 37.0818 30.9911 37.2002C30.9131 37.4574 30.8015 37.5994 30.8535 37.3751C30.9168 37.1015 30.8367 37.224 30.7477 37.5366C30.6993 37.7068 30.6488 37.8824 30.6355 37.9268C30.6139 37.9986 30.6175 37.9986 30.6683 37.9268C30.6997 37.8824 30.7257 37.8631 30.7262 37.8839C30.7277 37.9536 30.5976 38.2224 30.5429 38.2624C30.5083 38.2878 30.5118 38.3022 30.5527 38.3028C30.6121 38.3035 30.5628 38.5152 30.4272 38.8418C30.4088 38.8862 30.3847 38.9704 30.3737 39.029C30.3626 39.0876 30.3305 39.159 30.3022 39.1878C30.274 39.2166 30.2509 39.2851 30.2509 39.3401C30.2509 39.3951 30.2293 39.4266 30.2029 39.4101C30.1765 39.3934 30.1668 39.4261 30.1813 39.4826C30.197 39.5435 30.1627 39.6312 30.097 39.698C30.0362 39.7599 29.9991 39.8106 30.0146 39.8106C30.0634 39.8106 29.9246 40.0433 29.7337 40.2815C29.4879 40.5882 29.3708 40.5811 29.1088 40.2433C28.9949 40.0965 28.8842 39.9754 28.8627 39.9742C28.8038 39.971 28.4277 40.7631 28.3194 41.1185C28.2016 41.5053 28.0655 41.6236 27.8804 41.5001C27.7589 41.4192 27.7451 41.4231 27.5833 41.5827C27.4899 41.6747 27.3972 41.7375 27.3772 41.7223C27.3573 41.7069 27.3532 41.7107 27.368 41.7308C27.4062 41.7823 27.1765 42.02 27.1218 41.9856C27.0969 41.97 27.0765 41.9945 27.0765 42.0404C27.0765 42.0861 26.9924 42.1593 26.8895 42.203C26.684 42.2904 26.6758 42.298 26.3429 42.7085C26.1308 42.9701 26.1146 43.0111 26.1458 43.2095C26.1797 43.4253 26.1294 43.5392 25.6497 44.3317C25.6228 44.3761 25.5411 44.5249 25.4681 44.6624C25.3952 44.7999 25.2067 45.1047 25.0494 45.3398C24.8557 45.6291 24.7519 45.8445 24.728 46.0065C24.6598 46.4694 24.3802 46.734 24.1773 46.5276C24.1008 46.4499 24.092 45.7965 24.1647 45.6019C24.288 45.2719 24.0948 45.4565 23.7331 46.0141C23.2944 46.6907 23.2231 46.8495 23.1363 47.3457C23.1337 47.3605 22.9955 47.5812 22.8291 47.836C22.6628 48.0909 22.5266 48.3153 22.5266 48.3347C22.5266 48.354 22.4053 48.4925 22.2571 48.6426C22.0665 48.8354 21.9953 48.9456 22.014 49.0187C22.0287 49.0755 22.0213 49.1099 21.9978 49.0951C21.9743 49.0803 21.9292 49.1347 21.8977 49.2161C21.8662 49.2975 21.8196 49.4004 21.7943 49.4448C21.6324 49.7278 21.5831 49.8709 21.6105 49.9775C21.66 50.1704 21.5203 50.5244 21.3719 50.5817C21.2267 50.6379 21.1153 50.5801 20.7871 50.2785C20.5762 50.0847 20.5492 50.0879 20.368 50.3278C20.0703 50.7222 19.2874 51.6144 19.0745 51.802C18.9945 51.8725 18.9291 51.9627 18.9291 52.0025C18.9291 52.0423 18.8814 52.0902 18.8232 52.109C18.765 52.1278 18.7174 52.1657 18.7174 52.1933C18.7174 52.221 18.6716 52.2902 18.6155 52.3472C18.5595 52.4042 18.525 52.495 18.5388 52.5491C18.557 52.6204 18.3477 52.868 17.7733 53.4546C17.3386 53.8986 16.874 54.3572 16.7411 54.4736C16.5968 54.6001 16.4881 54.7462 16.471 54.8369C16.4553 54.9202 16.4293 55.0586 16.4131 55.1443C16.3926 55.2527 16.346 55.3073 16.2598 55.3241C16.1514 55.3452 16.1319 55.3227 16.1038 55.144C16.0839 55.0173 15.9713 54.8048 15.8074 54.5845C15.662 54.3891 15.5423 54.2003 15.5412 54.1649C15.5401 54.1294 15.4836 54.0312 15.4156 53.9466C15.3281 53.8377 15.2622 53.8025 15.1899 53.8258C15.0364 53.8753 14.9438 53.7706 14.672 53.24C14.5357 52.9739 14.4061 52.7438 14.3839 52.7287C14.3618 52.7135 14.3219 52.6605 14.2953 52.611C14.2687 52.5614 14.0684 52.3224 13.8501 52.0797C13.6319 51.837 13.4314 51.599 13.4047 51.5508C13.2969 51.3564 12.5641 50.5232 12.4759 50.4948C12.3872 50.4661 11.7339 49.7594 11.7339 49.6921C11.7339 49.675 11.6565 49.5572 11.5619 49.4304C11.4674 49.3036 11.3516 49.1403 11.3047 49.0674C11.2308 48.9528 11.2077 48.9448 11.133 49.0079C10.9786 49.1382 10.7907 48.9465 10.5496 48.4126C10.369 48.0128 10.308 47.9257 10.1917 47.9017C10.1097 47.8847 9.94902 47.7519 9.80474 47.5819C9.56159 47.2953 9.2924 47.1025 9.2276 47.1685C9.20934 47.187 9.19442 47.2436 9.19442 47.2943C9.19442 47.4254 9.07628 47.5079 8.94037 47.4718C8.84302 47.4458 8.82408 47.4026 8.82408 47.206C8.82408 46.8854 8.68521 46.554 8.51623 46.4713C8.33852 46.3843 8.13594 45.7789 8.14689 45.3676C8.15478 45.0715 8.13224 45.03 7.75084 44.6394C7.66974 44.5564 7.45901 44.2904 7.28257 44.0482C7.02725 43.6979 6.88848 43.5638 6.60268 43.3913C5.9685 43.0084 5.84756 42.9064 5.10984 42.1323C4.71104 41.7138 4.37176 41.3714 4.35594 41.3714C4.34007 41.3714 4.32711 41.5088 4.32711 41.6767C4.32711 42.0295 4.23145 42.1788 4.00533 42.1788C3.8045 42.1788 3.67679 41.9964 3.56574 41.5508C3.32497 40.585 2.9459 39.6654 2.61736 39.25C2.5217 39.1291 2.34944 38.88 2.23458 38.6965C2.11973 38.5129 1.9781 38.2904 1.9199 38.2021C1.42105 37.4449 1.28101 37.2311 1.18451 37.0795C1.05452 36.8753 1.0168 36.8637 0.977652 37.0161C0.956966 37.0966 0.914324 37.123 0.825971 37.1103C0.721589 37.0953 0.704659 37.0642 0.713758 36.9042C0.723017 36.7401 0.718891 36.7332 0.68191 36.8504C0.640643 36.9809 0.63821 36.9793 0.599694 36.7966C0.559275 36.6047 0.331727 36.3692 0.159837 36.3413C0.104286 36.3323 0.0735477 36.2865 0.081748 36.2251C0.0892077 36.1694 0.067887 35.9833 0.0342919 35.8115C-0.0142225 35.5634 -0.0119477 35.4365 0.0455078 35.1929C0.112645 34.9081 0.417223 34.3481 0.505469 34.3473C0.526843 34.347 0.603503 34.3044 0.675825 34.2526C0.795551 34.1667 0.800683 34.1475 0.73344 34.0377C0.665879 33.9273 0.667096 33.9234 0.74746 33.9909C0.804598 34.039 0.835336 34.0436 0.835336 34.0044C0.835336 33.9711 0.871047 33.944 0.914694 33.944C1.0241 33.944 1.01495 33.9867 0.861789 34.191C0.789043 34.288 0.729525 34.4275 0.729525 34.501C0.729525 34.5746 0.700955 34.6444 0.665985 34.6563C0.62329 34.6707 0.620804 34.6893 0.65842 34.7129C0.689158 34.7323 0.749999 34.7064 0.793593 34.6555C0.925169 34.5018 1.79547 33.6132 2.10571 33.3158C2.26543 33.1627 2.47938 32.9184 2.58122 32.7731C2.68306 32.6277 2.84972 32.4426 2.95156 32.3619C3.25656 32.12 4.22399 31.1777 5.19053 30.1812C5.69043 29.6658 6.22853 29.1208 6.38635 28.9702C6.54417 28.8195 6.71082 28.6517 6.75669 28.5973C6.80256 28.5429 7.10201 28.2731 7.42208 27.9979C7.74216 27.7227 8.04304 27.4524 8.09071 27.3972C8.13837 27.3421 8.29947 27.1758 8.44866 27.0278C8.59791 26.8798 9.05888 26.4196 9.47308 26.0052C10.3616 25.1161 10.968 24.5586 11.0721 24.5351C11.1133 24.5258 11.1612 24.4725 11.1786 24.4167C11.196 24.3609 11.2563 24.3004 11.3124 24.2823C11.3686 24.2641 11.5162 24.1534 11.6404 24.0363C11.7646 23.9191 11.9317 23.7822 12.0116 23.7319C12.0916 23.6818 12.1571 23.6255 12.1571 23.6071C12.1571 23.5886 12.2524 23.4746 12.3688 23.3538C12.5302 23.1862 12.5804 23.0916 12.5804 22.9546C12.5804 22.8559 12.6036 22.6928 12.6319 22.5923C12.6603 22.4917 12.6692 22.237 12.6516 22.0263C12.6201 21.6468 12.618 21.6424 12.4253 21.5587C12.1578 21.4425 11.8894 21.09 11.5783 20.4464C11.3694 20.014 11.2215 19.799 10.8598 19.4013C10.4323 18.9314 10.2456 18.7717 10.1203 18.7686C10.0912 18.7679 10.0237 18.8602 9.97023 18.9737C9.9168 19.0872 9.81765 19.2457 9.74993 19.3259C9.68221 19.4061 9.59862 19.5914 9.56407 19.7377C9.52958 19.884 9.4799 19.9903 9.45371 19.9738C9.42747 19.9573 9.40605 19.9695 9.40605 20.0008C9.40605 20.0321 9.38081 20.0578 9.35002 20.0578C9.31923 20.0578 9.30743 20.0356 9.32388 20.0086C9.34034 19.9815 9.32669 19.9502 9.29351 19.9389C9.23098 19.9177 9.22098 19.3658 9.27563 18.9545C9.29748 18.79 9.27278 18.6772 9.17109 18.4767C9.09787 18.3323 9.0219 18.1265 9.00222 18.0192C8.98185 17.9081 8.8654 17.6978 8.73161 17.5305C8.60241 17.369 8.39169 17.024 8.26334 16.764C8.08018 16.3931 7.98447 16.262 7.81877 16.1556C7.70264 16.081 7.52081 15.8871 7.41478 15.7246C7.20448 15.4024 7.1019 15.3586 7.02704 15.559C6.92303 15.8373 6.54914 15.7472 6.54914 15.4438C6.54914 15.3723 6.51343 15.2774 6.46978 15.233C6.42413 15.1866 6.39043 15.0551 6.39043 14.9236C6.39043 14.7407 6.34794 14.6371 6.17759 14.4048C6.06051 14.2452 5.93962 14.0167 5.90898 13.8972C5.83634 13.614 5.50246 12.942 5.32586 12.7235C5.20719 12.5768 5.17497 12.5621 5.10355 12.6225C4.93875 12.7616 4.82352 12.6424 4.56328 12.0637C4.42387 11.7537 4.29245 11.5001 4.27124 11.5001C4.24997 11.5001 4.21796 11.539 4.20003 11.5865C4.17707 11.6474 4.12929 11.6632 4.03867 11.6401C3.91942 11.6096 3.90878 11.6236 3.8937 11.8313C3.8746 12.0939 3.71515 12.1768 3.65991 11.9528C3.6423 11.8814 3.60976 11.823 3.58764 11.823C3.56553 11.823 3.5349 11.7276 3.5195 11.6109C3.4939 11.4167 3.44422 11.286 3.28296 10.9888C3.01621 10.4969 2.92617 10.1823 2.86982 9.54486C2.84469 9.26111 2.80342 9.09415 2.74338 9.03355C2.55773 8.84603 1.99926 8.12444 1.99926 8.07196C1.99926 8.04182 1.85414 7.85602 1.67675 7.65909C1.31757 7.26037 1.21663 6.96021 1.38423 6.78964C1.43153 6.74153 1.4702 6.6539 1.4702 6.59486C1.4702 6.42968 1.73299 6.01535 1.84054 6.011C1.8935 6.00879 4.50545 3.39948 5.40956 2.44548C5.97882 1.84477 6.23155 1.67921 6.23181 1.90683C6.23192 1.99973 5.81613 3.05222 5.75894 3.10378C5.69334 3.16293 5.38522 3.79545 5.38522 3.87097C5.38522 3.91542 5.35141 3.98028 5.31009 4.01516C5.26883 4.05003 5.19269 4.19831 5.14095 4.34471C5.08921 4.49105 5.02779 4.61081 5.0044 4.61081C4.98107 4.61081 4.96197 4.65548 4.96197 4.71011C4.96197 4.76474 4.91536 4.85236 4.85833 4.90484C4.80135 4.95732 4.71549 5.12454 4.66755 5.27648C4.61962 5.42837 4.52593 5.63914 4.45932 5.74479C4.32446 5.95879 4.17643 6.31827 4.03978 6.7637C3.92174 7.14831 3.9984 7.34983 4.48609 7.93708C4.57698 8.04655 4.73914 8.26211 4.84638 8.41599C5.09265 8.7695 5.6807 9.56343 5.77524 9.67011C5.8146 9.71451 5.90692 9.84772 5.98035 9.96613C6.05379 10.0845 6.19012 10.2541 6.28334 10.3429C6.37651 10.4317 6.48491 10.5669 6.52417 10.6433C6.56348 10.7198 6.67945 10.8893 6.78193 11.0201C6.8844 11.1509 7.04656 11.3611 7.14227 11.4872C7.23797 11.6134 7.38188 11.7945 7.46203 11.8897C7.54218 11.9849 7.62117 12.1058 7.63757 12.1582C7.65392 12.2107 7.68756 12.2536 7.71232 12.2536C7.73708 12.2536 7.81152 12.3444 7.87776 12.4554C7.944 12.5664 8.09473 12.7561 8.21271 12.8769C8.33074 12.9978 8.55823 13.2704 8.71827 13.4827C8.87831 13.695 9.05909 13.9231 9.12004 13.9896C9.18098 14.0561 9.28129 14.1966 9.34298 14.302C9.40462 14.4073 9.57651 14.6132 9.72496 14.7595C9.87341 14.9057 10.044 15.1214 10.104 15.2387C10.2259 15.4766 11.8726 17.2052 11.9775 17.2052C12.0141 17.2052 12.0578 17.2487 12.0743 17.3019C12.091 17.3551 12.1997 17.4904 12.316 17.6025C12.4323 17.7146 12.5275 17.8283 12.5275 17.8552C12.5275 17.9256 12.8969 18.3667 13.5607 19.089C13.7375 19.2814 13.9623 19.566 14.0602 19.7214C14.2911 20.0878 14.4348 20.1036 14.5529 19.7752C14.6408 19.5308 14.6667 18.12 14.6568 14.1104C14.6543 13.104 14.6563 10.8273 14.6612 9.05115L14.6702 5.82181L14.5289 5.5527C14.4513 5.40469 14.3761 5.22304 14.3617 5.14903C14.3139 4.90215 14.2767 4.75656 14.198 4.50779C14.155 4.37205 14.1035 4.16408 14.0836 4.04567C14.0636 3.92726 13.9946 3.72139 13.9302 3.58818C13.8658 3.45497 13.747 3.15222 13.6662 2.9154C13.5854 2.67859 13.4473 2.3274 13.3594 2.13498C13.2715 1.94257 13.1972 1.70117 13.1942 1.59853C13.1853 1.28992 13.3289 1.32506 13.7873 1.74364C14.1864 2.10802 14.6721 2.40409 14.8708 2.40409C15.018 2.40409 15.2786 2.19747 15.2786 2.08067C15.2786 2.02524 15.3015 1.96544 15.3295 1.94784C15.3576 1.93024 15.4037 1.83794 15.4321 1.74283C15.5209 1.44552 15.6236 1.18163 15.6802 1.10514C15.7101 1.06472 15.7795 0.922633 15.8344 0.789423C16.0024 0.381612 16.1183 0.243019 16.2759 0.261642C16.3645 0.272083 16.4392 0.329243 16.4811 0.418426ZM27.6441 11.4788C27.6229 11.5003 27.6063 11.5685 27.6072 11.6302C27.6086 11.7337 27.613 11.7349 27.6638 11.646C27.723 11.5426 27.7079 11.4139 27.6441 11.4788ZM3.85096 12.1932C3.85096 12.2191 3.8171 12.269 3.77578 12.3039C3.71404 12.356 3.70568 12.3475 3.72901 12.2566C3.75684 12.1485 3.85096 12.0995 3.85096 12.1932ZM17.8876 25.0472C17.9058 25.077 17.8639 25.1556 17.7946 25.2219C17.7017 25.3107 17.6604 25.4224 17.6373 25.6468C17.5808 26.1968 17.5501 28.0946 17.5271 32.4639C17.5071 36.2458 17.5145 36.8215 17.5884 37.1956C17.6462 37.4887 17.6606 37.7239 17.6344 37.9492C17.5704 38.5007 17.5543 42.2327 17.6147 42.5142C17.6645 42.7459 17.6567 42.792 17.5289 43.0248C17.3112 43.4209 17.227 44.1338 17.2186 45.6503C17.2093 47.3412 17.2575 47.9325 17.4237 48.1659C17.4925 48.2625 17.623 48.4868 17.7137 48.6644C17.9121 49.0529 18.0147 49.1757 18.1412 49.1757C18.2978 49.1757 18.4728 49.0691 18.5852 48.9053C18.7067 48.7282 19.1888 48.1368 19.3738 47.9378C19.4427 47.8638 19.6951 47.5368 19.9347 47.2112C20.1743 46.8855 20.4891 46.4803 20.6341 46.3106C20.8588 46.0474 21.2037 45.5293 21.2651 45.3625C21.2894 45.2962 22.1287 44.3682 22.3866 44.1224C22.4988 44.0155 22.6338 43.8432 22.6867 43.7396C22.7396 43.636 22.929 43.4059 23.1075 43.2283C23.2862 43.0507 23.6034 42.6636 23.8127 42.368C24.022 42.0725 24.4134 41.5965 24.6825 41.3103C24.9517 41.0241 25.1719 40.7691 25.1719 40.7437C25.1719 40.7183 25.2699 40.5949 25.3896 40.4694C25.5094 40.3439 25.5906 40.2412 25.5701 40.2412C25.5496 40.2412 25.5945 40.1666 25.6698 40.0756C25.7452 39.9845 25.8068 39.8937 25.8068 39.8736C25.8068 39.8537 25.9164 39.7163 26.0503 39.5683C26.9195 38.6083 27.013 38.4978 27.0985 38.331C27.1301 38.2694 27.3142 38.0503 27.5077 37.8441C27.7012 37.638 27.9413 37.3594 28.0411 37.225C28.141 37.0906 28.3314 36.867 28.4642 36.728C29.0087 36.158 29.2446 35.4722 29.0877 34.9157C29.0338 34.7242 28.9841 34.6701 28.3701 34.1345C28.1679 33.9581 27.7967 33.619 27.5454 33.381C27.2941 33.143 26.9965 32.8641 26.8841 32.7612C26.7717 32.6583 26.5001 32.404 26.2806 32.1961C25.8309 31.7701 25.5043 31.4754 25.1757 31.199C24.8435 30.9196 24.2097 30.2906 24.0785 30.11C24.0154 30.0232 23.8942 29.8998 23.8091 29.8356C23.5618 29.6491 22.7837 28.9192 21.9496 28.0913C21.525 27.6698 21.1478 27.3246 21.1114 27.3244C21.0751 27.324 21.0453 27.2875 21.0453 27.2431C21.0453 27.1987 21.0194 27.1624 20.9877 27.1624C20.9559 27.1624 20.7338 26.9626 20.494 26.7183C20.2541 26.4741 19.9092 26.1411 19.7275 25.9783C19.5458 25.8155 19.3181 25.6044 19.2214 25.5093C18.9331 25.2256 18.609 25.0715 18.2136 25.0303C17.9768 25.0056 17.8659 25.0113 17.8876 25.0472ZM14.2205 25.2248C14.1768 25.2534 14.0756 25.2773 13.9956 25.2778C13.9156 25.2782 13.8501 25.3028 13.8501 25.3324C13.8501 25.362 13.8182 25.3862 13.7793 25.3862C13.7403 25.3862 13.6347 25.4649 13.5447 25.5611C13.4547 25.6574 13.2475 25.8572 13.0842 26.0052C12.9209 26.1532 12.7168 26.3402 12.6306 26.4208C12.5445 26.5014 12.3432 26.6678 12.1833 26.7906C12.0234 26.9134 11.8926 27.0299 11.8926 27.0496C11.8926 27.0692 11.8271 27.1261 11.7471 27.1759C11.5508 27.2981 11.099 27.7379 11.099 27.8068C11.099 27.8372 11.0812 27.8624 11.0593 27.8628C11.0375 27.8632 10.853 28.0243 10.6493 28.2208C10.2572 28.5989 9.19299 29.5282 8.91736 29.7331C8.59775 29.9706 7.0782 31.4403 7.0782 31.5118C7.0782 31.556 5.86851 32.7599 5.82418 32.7599C5.76947 32.7599 4.83521 33.7485 4.8323 33.8094C4.83087 33.839 4.794 33.8632 4.75035 33.8632C4.7067 33.8632 4.63528 33.9416 4.59163 34.0374C4.54772 34.1336 4.4827 34.2005 4.44609 34.187C4.40969 34.1736 4.29944 34.2345 4.20103 34.3224C4.10268 34.4103 3.99555 34.4822 3.96301 34.4822C3.93047 34.4822 3.90386 34.5185 3.90386 34.5629C3.90386 34.6167 3.85096 34.6437 3.74514 34.6437C3.65785 34.6437 3.58643 34.6666 3.58643 34.6947C3.58643 34.7228 3.51072 34.8178 3.41813 34.9058C3.27264 35.0441 3.24672 35.1101 3.22662 35.393C3.20704 35.6684 3.21694 35.7201 3.2891 35.7201C3.33624 35.7201 3.37481 35.7535 3.37481 35.7943C3.37481 35.835 3.41374 35.9013 3.46136 35.9415C3.50897 35.9817 3.60209 36.1019 3.66833 36.2086C3.73451 36.3153 3.82059 36.4368 3.85953 36.4785C3.94211 36.567 4.2742 37.1116 4.2742 37.1586C4.2742 37.1761 4.39922 37.3268 4.55196 37.4933C4.85235 37.8207 4.9707 37.9662 5.17021 38.2529C5.2411 38.3548 5.39929 38.5288 5.52177 38.6396C5.64424 38.7504 5.79587 38.9413 5.85867 39.0639C5.92142 39.1864 6.25128 39.5862 6.59163 39.9523C6.93197 40.3183 7.21046 40.6433 7.21046 40.6746C7.21046 40.7058 7.26813 40.7923 7.33865 40.8668C7.40918 40.9413 7.54012 41.1193 7.62963 41.2624C7.71915 41.4054 7.974 41.7182 8.19588 41.9575C8.41782 42.1969 8.63616 42.4497 8.68108 42.5195C8.72605 42.5893 8.84726 42.7274 8.95042 42.8264C9.05359 42.9255 9.17326 43.0927 9.21627 43.1981C9.25934 43.3036 9.49651 43.602 9.74343 43.8613C9.99028 44.1206 10.2994 44.496 10.4303 44.6956C10.5612 44.895 10.8615 45.2763 11.0977 45.5427C11.3338 45.8091 11.5449 46.0513 11.5667 46.0809C11.5885 46.1105 11.7243 46.2707 11.8685 46.4368C12.0127 46.6029 12.2075 46.833 12.3013 46.9481C12.3952 47.0632 12.5439 47.2453 12.632 47.3528C12.72 47.4604 12.792 47.575 12.792 47.6076C12.792 47.6402 12.9776 47.8792 13.2045 48.1387C13.4313 48.3982 13.7101 48.7559 13.824 48.9335C14.0733 49.3221 14.1769 49.4149 14.474 49.5158C14.6809 49.5862 14.7113 49.5845 14.8179 49.4968C14.9328 49.4021 14.9347 49.3788 14.9343 48.0368C14.934 47.2867 14.9167 46.1159 14.896 45.435C14.8752 44.7542 14.8458 42.4654 14.8307 40.3488C14.8155 38.2323 14.7816 35.9071 14.7553 35.1819C14.729 34.4566 14.7161 32.7733 14.7267 31.4412C14.7535 28.071 14.6693 25.6273 14.514 25.2651C14.4696 25.1614 14.3433 25.144 14.2205 25.2248ZM30.816 37.6678C30.7992 37.7107 30.7866 37.698 30.7841 37.6353C30.7818 37.5785 30.7943 37.5468 30.8119 37.5647C30.8294 37.5825 30.8313 37.629 30.816 37.6678ZM30.5196 38.1197C30.5221 38.1824 30.5346 38.1951 30.5515 38.1522C30.5668 38.1134 30.5649 38.0669 30.5473 38.0491C30.5298 38.0312 30.5173 38.0629 30.5196 38.1197ZM3.69303 39.8787C3.69261 39.9309 3.77493 40.0641 3.87598 40.1747C4.11765 40.4391 4.11786 40.2842 3.87619 39.999C3.74578 39.845 3.69361 39.8108 3.69303 39.8787ZM15.2476 42.0711C15.2476 42.6188 15.2555 42.8428 15.2651 42.569C15.2747 42.2952 15.2747 41.8471 15.2651 41.5733C15.2555 41.2995 15.2476 41.5235 15.2476 42.0711ZM5.38522 41.2986C5.38522 41.4028 5.77323 41.775 5.7992 41.6958C5.81963 41.6333 5.55616 41.2906 5.45135 41.2432C5.41389 41.2263 5.38522 41.2503 5.38522 41.2986ZM9.51186 46.4577C9.51186 46.5613 9.53307 46.646 9.55905 46.646C9.61851 46.646 9.68443 46.3894 9.64264 46.3206C9.57592 46.2108 9.51186 46.2779 9.51186 46.4577ZM19.9872 50.0131C19.9872 50.0592 20.011 50.0821 20.0401 50.0638C20.0692 50.0455 20.093 50.0077 20.093 49.9798C20.093 49.952 20.0692 49.9292 20.0401 49.9292C20.011 49.9292 19.9872 49.967 19.9872 50.0131ZM19.7359 50.2118C19.7431 50.2488 19.7218 50.2738 19.6884 50.2674C19.6522 50.2605 19.6388 50.2991 19.6552 50.3627C19.6772 50.4487 19.6975 50.4571 19.7585 50.4057C19.8001 50.3705 19.8576 50.2973 19.8861 50.2431C19.9285 50.1625 19.9183 50.1445 19.8303 50.1445C19.7711 50.1445 19.7286 50.1748 19.7359 50.2118ZM19.436 50.6335C19.3605 50.7247 19.3121 50.8216 19.3286 50.8488C19.3451 50.8758 19.3227 50.898 19.279 50.898C19.2352 50.898 19.1683 50.9639 19.1304 51.0444C19.0924 51.125 19.0062 51.2188 18.9389 51.253C18.7522 51.3476 18.5167 51.5961 18.4617 51.7565C18.415 51.8929 18.4202 51.899 18.565 51.8774C18.6488 51.8648 18.7174 51.8331 18.7174 51.8067C18.7174 51.7804 18.8127 51.6714 18.9291 51.5644C19.0454 51.4574 19.1407 51.3364 19.1407 51.2954C19.1407 51.2545 19.1642 51.2209 19.1929 51.2209C19.2217 51.2209 19.3291 51.0514 19.4317 50.8442C19.5342 50.637 19.608 50.4674 19.5957 50.4674C19.5834 50.4674 19.5115 50.5421 19.436 50.6335Z" fill="#1B2026"/>
</svg>
