<svg width="14" height="11" viewBox="0 0 14 11" fill="none" xmlns="http://www.w3.org/2000/svg">
<path d="M8.07297 10.484V8.972C10.353 8.228 11.493 7.148 11.493 5.732C11.493 5.372 11.361 5.096 11.097 4.904C10.833 4.712 10.521 4.532 10.161 4.364C9.82497 4.196 9.52497 3.968 9.26097 3.68C8.99697 3.392 8.86497 2.972 8.86497 2.42C8.86497 1.724 9.08097 1.196 9.51297 0.835998C9.96897 0.475998 10.533 0.295998 11.205 0.295998C11.949 0.295998 12.597 0.571998 13.149 1.124C13.701 1.652 13.977 2.42 13.977 3.428C13.977 4.964 13.521 6.368 12.609 7.64C11.721 8.912 10.209 9.86 8.07297 10.484ZM0.872969 10.484V8.972C3.15297 8.228 4.29297 7.148 4.29297 5.732C4.29297 5.372 4.16097 5.096 3.89697 4.904C3.63297 4.712 3.32097 4.532 2.96097 4.364C2.62497 4.196 2.32497 3.968 2.06097 3.68C1.79697 3.392 1.66497 2.972 1.66497 2.42C1.66497 1.724 1.88097 1.196 2.31297 0.835998C2.76897 0.475998 3.33297 0.295998 4.00497 0.295998C4.74897 0.295998 5.39697 0.571998 5.94897 1.124C6.50097 1.652 6.77697 2.42 6.77697 3.428C6.77697 4.964 6.32097 6.368 5.40897 7.64C4.52097 8.912 3.00897 9.86 0.872969 10.484Z" fill="#E1D4BB"/>
</svg>
