<svg width="14" height="11" viewBox="0 0 14 11" fill="none" xmlns="http://www.w3.org/2000/svg">
<path d="M10.7806 10.448C10.0366 10.448 9.38859 10.184 8.83659 9.65601C8.28459 9.10401 8.00859 8.32401 8.00859 7.31601C8.00859 5.78001 8.45259 4.37601 9.34059 3.10401C10.2526 1.83201 11.7766 0.88401 13.9126 0.26001V1.77201C11.6326 2.51601 10.4926 3.59601 10.4926 5.01201C10.4926 5.37201 10.6246 5.64801 10.8886 5.84001C11.1526 6.03201 11.4526 6.21201 11.7886 6.38001C12.1486 6.54801 12.4606 6.77601 12.7246 7.06401C12.9886 7.35201 13.1206 7.77201 13.1206 8.32401C13.1206 9.02001 12.8926 9.54801 12.4366 9.90801C12.0046 10.268 11.4526 10.448 10.7806 10.448ZM3.58059 10.448C2.83659 10.448 2.18859 10.184 1.63659 9.65601C1.08459 9.10401 0.808594 8.32401 0.808594 7.31601C0.808594 5.78001 1.25259 4.37601 2.14059 3.10401C3.05259 1.83201 4.57659 0.88401 6.71259 0.26001V1.77201C4.43259 2.51601 3.29259 3.59601 3.29259 5.01201C3.29259 5.37201 3.42459 5.64801 3.68859 5.84001C3.95259 6.03201 4.25259 6.21201 4.58859 6.38001C4.94859 6.54801 5.26059 6.77601 5.52459 7.06401C5.78859 7.35201 5.92059 7.77201 5.92059 8.32401C5.92059 9.02001 5.69259 9.54801 5.23659 9.90801C4.80459 10.268 4.25259 10.448 3.58059 10.448Z" fill="#E1D4BB"/>
</svg>
