<?xml version="1.0" encoding="utf-8"?>
<!-- Generator: Adobe Illustrator 21.0.0, SVG Export Plug-In . SVG Version: 6.00 Build 0)  -->
<svg version="1.1" id="Layer_1" xmlns="http://www.w3.org/2000/svg" xmlns:xlink="http://www.w3.org/1999/xlink" x="0px" y="0px"
	 viewBox="0 0 595.3 841.9" style="enable-background:new 0 0 595.3 841.9;" xml:space="preserve">
<style type="text/css">
	.st0{fill:#FFFFFF;}
</style>
<g>
	<path d="M182.3,514c1-4.4,2.4-8.5,5.6-11.9c5.5-5.8,12.2-8,19.9-6.5c7.6,1.5,13,6.2,15.7,13.5c4.7,12.9-3.9,26.5-17,28.2
		c-0.2,0-0.4,0.2-0.6,0.3c-1.5,0-3,0-4.5,0c-0.3-0.1-0.5-0.3-0.8-0.3c-5.5-0.8-9.9-3.4-13.5-7.7c-2.7-3.2-3.8-7-4.7-11
		C182.3,517.1,182.3,515.5,182.3,514z"/>
	<path class="st0" d="M182.3,518.6c0.9,4,2,7.8,4.7,11c3.6,4.3,8,6.9,13.5,7.7c0.3,0,0.6,0.2,0.8,0.3c-6.3,0-12.7,0-19,0
		C182.3,531.3,182.3,524.9,182.3,518.6z"/>
	<path d="M407.7,305.5c4.1-0.1,7,2.3,6.7,6c-0.9,10.5-1.8,21.1-3.1,31.6c-0.5,4.4-2.8,8.1-5.9,11.2
		c-39.7,39.7-79.4,79.4-119.2,119.1c-3.6,3.6-7.6,3.6-11.3,0c-2-2-4-3.9-5.9-5.9c-3.6-3.7-3.6-7.7,0.1-11.3
		c14.4-14.4,28.9-28.8,43.3-43.3c18.3-18.3,36.6-36.5,54.9-54.8c0.3-0.3,0.6-0.6,1-1c2.3-2.4,2.7-4.6,0.9-6.3
		c-1.8-1.8-3.9-1.5-6.3,0.9c-32.9,32.8-65.7,65.7-98.7,98.5c-1.4,1.4-3.3,2.5-5.1,3.1c-2.4,0.7-4.6-0.3-6.4-2.1
		c-2.2-2.2-4.4-4.3-6.6-6.6c-3.2-3.3-3.2-7.3,0-10.7c0.5-0.5,1-1,1.4-1.4c39-39,78.1-78,117.1-117c4.3-4.3,9.3-6.8,15.4-7.4
		C389.3,307.2,398.7,306.3,407.7,305.5z"/>
	<path d="M255.6,491.2c-5.4,3.5-10.5,6.7-15.5,10c-3.4,2.2-4.9,2-7-1.5c-3.2-5.4-7.5-9.6-12.9-12.8c-3.2-1.9-3.6-3.6-1.6-6.9
		c2.9-4.8,5.8-9.6,8.8-14.3c0.7-1.2,0.7-1.9-0.3-2.9c-5.5-5.3-10.8-10.8-16.3-16.1c-0.7-0.7-1.9-1.2-2.9-1.2
		c-5.3-0.1-10.6,0-15.9-0.1c-4.1-0.1-6.8-2.7-6.9-6.3c0-3.3,2.5-6.2,5.9-6.2c7.2-0.1,14.4-0.2,21.5,0.1c1.8,0.1,3.8,1.5,5.1,2.8
		c16.6,16.5,33.2,33.1,49.8,49.6c5.6,5.6,11.1,11.1,16.7,16.6c1.7,1.7,2.7,3.6,2.7,6c0,6.5,0.1,13,0,19.5c-0.1,4.8-3.6,7.8-7.8,6.8
		c-2.9-0.7-4.8-3.1-4.8-6.3c-0.1-5.3,0.1-10.6-0.1-15.9c0-1.2-0.6-2.7-1.4-3.5C267.2,502.8,261.5,497.1,255.6,491.2z"/>
</g>
</svg>
