<svg width="50" height="50" viewBox="0 0 50 50" fill="none" xmlns="http://www.w3.org/2000/svg">
<circle cx="25" cy="25" r="24.5" stroke="#E1D4BB"/>
<path d="M14.5246 28.2997C14.5564 27.8761 14.567 27.463 14.6146 27.0553C14.694 26.3669 14.9059 25.7155 15.2183 25.096C15.3348 24.8683 15.4831 24.7094 15.7531 24.7783C16.0232 24.8471 16.0973 25.0536 16.092 25.3078C16.0708 26.2663 16.1503 27.2088 16.415 28.1355C16.6586 28.9934 17.0558 29.7718 17.6859 30.4231C18.0725 30.8203 18.4379 30.7567 18.5809 30.2325C18.6126 30.1054 18.7079 29.973 18.8086 29.8936C19.0045 29.7506 19.2481 29.8618 19.3805 30.1319C19.7247 30.8521 20.1695 31.4875 20.8261 31.9588C21.9805 32.7849 23.4155 32.7743 24.4005 31.9323C25.163 31.2757 25.3166 30.3384 24.7712 29.6024C24.4693 29.1946 24.0616 28.9669 23.5532 28.9669C23.1931 28.9669 22.833 28.9987 22.473 29.0357C21.1438 29.1787 20.0636 28.1143 20.1959 26.7905C20.2065 26.6581 20.2118 26.5257 20.2489 26.3986C20.2701 26.3245 20.3442 26.2292 20.4025 26.2239C20.4607 26.2133 20.5507 26.2927 20.5931 26.3563C20.6566 26.4463 20.6884 26.5628 20.7467 26.6634C20.9903 27.0765 21.4457 27.2724 21.9011 27.1612C22.3141 27.0659 22.6265 26.6687 22.6583 26.2133C22.6901 25.8267 22.5895 25.4772 22.3512 25.1701C21.345 23.8833 20.3601 22.586 19.3222 21.3257C17.3258 18.8898 15.2977 16.4804 13.2855 14.0551C13.2272 13.9863 13.1743 13.9174 13.1266 13.8433C12.9519 13.5944 12.9572 13.3349 13.1478 13.1443C13.3384 12.9537 13.5873 12.9484 13.8362 13.1496C14.6887 13.8486 15.536 14.5529 16.3886 15.2572C19.1686 17.5554 21.954 19.8536 24.7341 22.157C25.0042 22.3794 25.306 22.5065 25.6555 22.4907C26.095 22.4695 26.3704 22.2047 26.4127 21.7546C26.4339 21.5269 26.3862 21.2992 26.4021 21.0715C26.4127 20.9285 26.4339 20.7485 26.5239 20.6532C26.6669 20.5049 26.8311 20.6267 26.9687 20.7273C27.6942 21.2621 28.049 22.0088 28.1655 22.8825C28.1867 23.0467 28.1973 23.2161 28.2079 23.3856C28.2767 24.5611 29.1187 25.2284 30.2731 25.0218C31.6075 24.7836 32.2694 23.375 31.6287 22.1094C31.5228 21.8976 31.3745 21.7069 31.2315 21.5216C30.9138 21.1086 30.6914 20.6532 30.6437 20.1289C30.6384 20.0442 30.6702 19.8959 30.7179 19.88C30.7973 19.8588 30.9032 19.9065 30.9932 19.9436C31.1627 20.0124 31.3162 20.1448 31.491 20.1713C32.1 20.2666 32.4918 19.7741 32.3277 19.1387C32.2853 18.9692 32.2006 18.8104 32.1211 18.6568C31.1415 16.8564 29.5953 15.8608 27.6201 15.469C27.5671 15.4584 27.5036 15.4637 27.4665 15.4372C27.3553 15.3578 27.1806 15.2783 27.1594 15.1724C27.1382 15.0665 27.2441 14.8706 27.3447 14.8176C27.8584 14.5529 28.3773 14.2722 28.9227 14.0975C30.0454 13.7427 31.1839 13.7956 32.3065 14.1345C32.8201 14.2881 33.0002 14.1769 33.0796 13.6421C33.0955 13.5203 33.1061 13.3932 33.1485 13.282C33.1749 13.2131 33.2544 13.139 33.3232 13.1231C33.3762 13.1125 33.4821 13.1708 33.5085 13.229C33.9534 14.1557 34.7159 14.7965 35.4572 15.4637C36.3257 16.2474 36.7228 17.2959 36.8976 18.4238C36.9611 18.8474 36.977 19.2869 36.977 19.7159C36.9823 22.8243 36.9823 25.9274 36.9823 29.0357C36.9823 29.0781 36.9982 29.1311 36.977 29.1681C36.9241 29.2846 36.8817 29.4488 36.7864 29.4964C36.6169 29.5759 36.5322 29.4223 36.4634 29.274C36.278 28.8822 36.0874 28.4956 35.9021 28.1091C35.7961 27.8919 35.6373 27.7596 35.3778 27.7913C35.113 27.8231 34.986 28.0084 34.9648 28.2414C34.9065 28.8451 34.8747 29.4488 34.8377 30.0578C34.8271 30.2219 34.88 30.439 34.6841 30.4867C34.5517 30.5185 34.3611 30.4549 34.2393 30.3755C33.8421 30.1107 33.5827 29.7347 33.355 29.3111C33.0796 28.8027 32.746 28.3262 32.4283 27.8443C32.2906 27.6378 32.0788 27.5424 31.8299 27.6007C31.5863 27.6589 31.4698 27.839 31.4116 28.0667C31.3427 28.3473 31.2739 28.6333 31.2103 28.914C31.1203 29.3111 30.8873 29.3905 30.5643 29.1522C28.9969 27.982 27.4241 26.817 25.8514 25.652C25.8038 25.6149 25.7508 25.5779 25.6978 25.5514C25.5337 25.4561 25.3484 25.4455 25.2424 25.5937C25.1524 25.7102 25.1207 25.885 25.1101 26.0439C25.1048 26.1233 25.1842 26.2186 25.2371 26.298C26.275 27.9661 27.3235 29.6341 28.3455 31.3075C28.5785 31.6887 28.7639 32.1018 28.9386 32.5148C29.1928 33.1079 28.8963 33.4945 28.2449 33.4733C27.7101 33.4574 27.17 33.4733 26.6351 33.4839C26.2539 33.4945 25.9467 33.648 25.8038 34.024C25.6608 34.4 25.7932 34.7071 26.0579 34.9825C26.4233 35.3637 26.8469 35.655 27.3394 35.8509C27.5248 35.925 27.7101 36.0204 27.8848 36.1104C28.102 36.2269 28.1708 36.4175 28.1178 36.6452C28.0649 36.8729 27.906 36.9788 27.6783 36.9947C27.6413 36.9947 27.6095 37 27.5724 37C24.9247 37 22.277 37 19.6293 37C16.6322 36.9947 14.2757 35.279 13.402 32.0435C13.0789 30.8415 12.973 29.6129 13.0207 28.3738C13.0366 27.9926 13.2961 27.8602 13.6138 28.0667C13.8891 28.2308 14.1751 28.3685 14.5246 28.2997ZM24.4375 24.0634C24.3369 23.878 24.2946 23.7245 24.1887 23.6345C23.3838 22.9249 22.5683 22.2206 21.7475 21.5269C21.6839 21.4739 21.5357 21.511 21.4245 21.511C21.4245 21.6222 21.3927 21.7493 21.4404 21.8393C21.5198 21.9823 21.6469 22.0988 21.7528 22.2312C22.3353 22.9249 22.9178 23.6239 23.5003 24.3176C23.6538 24.5029 23.8551 24.5929 24.0616 24.4817C24.2151 24.397 24.3105 24.2169 24.4375 24.0634ZM35.4996 22.0935C35.4996 22.0829 35.4996 22.0405 35.489 21.9982C35.3672 21.5057 35.2507 21.0079 35.1183 20.5155C35.0707 20.3354 34.933 20.3142 34.7741 20.4572C34.3399 20.8385 34.1705 21.3098 34.324 21.8764C34.4246 22.2418 34.5253 22.6019 34.6259 22.9672C34.6947 23.2161 34.8959 23.2744 35.0813 23.089C35.346 22.8296 35.4996 22.5118 35.4996 22.0935ZM22.9337 35.1996C22.9284 34.8289 22.6106 34.5218 22.2347 34.5165C21.8905 34.5112 21.6469 34.7548 21.6469 35.0937C21.6522 35.459 21.9752 35.7768 22.3459 35.7821C22.6795 35.7821 22.9337 35.5279 22.9337 35.1996Z" fill="#E1D4BB"/>
<path d="M36.363 33.3833C36.2942 33.611 36.2254 33.9446 36.0983 34.257C36.0029 34.4953 35.8282 34.7018 35.5211 34.6753C35.2298 34.6489 35.108 34.4265 35.0233 34.1882C34.8644 33.7381 34.8221 33.2615 34.9703 32.8114C35.1027 32.4142 35.304 32.0382 35.4999 31.6729C35.5475 31.5828 35.7117 31.4981 35.8123 31.5034C35.897 31.5087 36.0135 31.6411 36.0453 31.7417C36.1353 32.0065 36.2042 32.2818 36.2571 32.5572C36.3048 32.7902 36.3207 33.0285 36.363 33.3833Z" fill="#E1D4BB"/>
<path d="M31.8614 35.9145C30.9135 35.8986 30.061 35.0884 30.0239 34.1564C30.0133 33.9287 30.1775 33.7752 30.4052 33.791C31.2048 33.8546 32.2321 34.6648 32.4757 35.4167C32.5392 35.618 32.4704 35.7715 32.2745 35.8404C32.1421 35.888 31.9991 35.888 31.8614 35.9145Z" fill="#E1D4BB"/>
<path d="M18.9092 25.6891C18.8881 26.2875 18.6762 26.7217 18.3267 27.0924C18.2685 27.1559 18.1255 27.2036 18.0514 27.1771C17.9772 27.1506 17.8978 27.0341 17.8819 26.9441C17.7337 26.0598 17.596 25.1701 17.4689 24.2858C17.453 24.1905 17.5007 24.0528 17.5695 23.9893C17.6225 23.9416 17.7866 23.9469 17.8502 23.9946C18.4485 24.4394 18.8722 24.9901 18.9092 25.6891Z" fill="#E1D4BB"/>
<path d="M25.7298 19.3558C25.7298 19.5411 25.5763 19.6576 25.3856 19.6046C25.0044 19.4934 24.6231 19.3875 24.2471 19.2657C23.6964 19.0857 23.4475 18.6568 23.3628 18.1166C23.331 17.926 23.4422 17.8307 23.6329 17.8889C24.0565 18.0107 24.4801 18.1325 24.8932 18.2755C25.338 18.4291 25.7298 18.9586 25.7298 19.3558Z" fill="#E1D4BB"/>
<path d="M29.8122 18.2332C29.8122 18.5298 29.5634 18.7786 29.2774 18.768C29.002 18.7575 28.7691 18.5139 28.7638 18.2332C28.7585 17.942 29.0073 17.6825 29.2933 17.6825C29.5739 17.6878 29.8175 17.9367 29.8122 18.2332Z" fill="#E1D4BB"/>
</svg>
