<svg width="50" height="50" viewBox="0 0 50 50" fill="none" xmlns="http://www.w3.org/2000/svg">
<circle cx="25" cy="25" r="24.5" stroke="#E1D4BB"/>
<path fill-rule="evenodd" clip-rule="evenodd" d="M24.9781 10.0863C25.0409 10.2203 25.2216 10.7395 25.2372 10.8308C25.2455 10.8792 25.2846 10.9628 25.3242 11.0167C25.3896 11.1055 25.406 11.1128 25.5009 11.0951C25.7169 11.055 25.9893 10.8379 26.1636 10.5669C26.2616 10.4147 26.2896 10.3964 26.3333 10.4558C26.3801 10.5196 26.3777 10.6652 26.3282 10.7561C26.3067 10.7955 26.2951 10.8437 26.3024 10.8632C26.3097 10.8826 26.2889 10.952 26.2561 11.0174C26.2232 11.0828 26.1964 11.1568 26.1964 11.1819C26.1964 11.2069 26.1842 11.2504 26.1692 11.2784C26.1542 11.3064 26.1012 11.4612 26.0513 11.6225C26.0015 11.7837 25.9415 11.9592 25.918 12.0124C25.8945 12.0657 25.868 12.1547 25.8592 12.2104C25.8503 12.266 25.8317 12.3115 25.818 12.3115C25.8042 12.3115 25.7929 12.3424 25.7929 12.3803C25.7929 12.4181 25.7743 12.4874 25.7515 12.5342C25.7287 12.581 25.6819 12.7249 25.6475 12.8539C25.5854 13.0868 25.5849 13.1077 25.585 15.8299C25.5853 20.7395 25.5846 20.6824 25.6485 20.7608L25.704 20.8289L25.8422 20.7527C25.9229 20.7081 26.0433 20.5986 26.1321 20.4888C26.2156 20.3856 26.3354 20.2417 26.3983 20.169C26.4612 20.0963 26.5342 20.004 26.5605 19.9638C26.5868 19.9236 26.6234 19.8775 26.6418 19.8614C26.6603 19.8452 26.7384 19.7529 26.8155 19.6561C26.8925 19.5594 27.0149 19.4166 27.0875 19.3388C27.1601 19.261 27.2247 19.1818 27.2311 19.1629C27.2374 19.1439 27.2511 19.1218 27.2616 19.1137C27.272 19.1056 27.3562 19.0067 27.4487 18.8938C27.5412 18.7809 27.7285 18.5698 27.865 18.4247C28.0014 18.2796 28.1514 18.1032 28.1984 18.0329C28.2454 17.9625 28.3003 17.8985 28.3203 17.8907C28.3404 17.8829 28.3856 17.8283 28.4208 17.7694C28.5013 17.6349 28.7369 17.3103 28.8411 17.1903C28.8845 17.1403 28.9394 17.0667 28.9632 17.0268C29.0872 16.8185 29.1249 16.7685 29.1577 16.7683C29.1776 16.7682 29.1938 16.7576 29.1938 16.7447C29.1938 16.7319 29.2165 16.6911 29.2442 16.654C29.3274 16.5428 29.5086 16.3169 29.5544 16.2672C29.578 16.2417 29.5972 16.2054 29.5972 16.1866C29.5972 16.1678 29.6164 16.1524 29.6399 16.1524C29.6633 16.1524 29.7105 16.0963 29.7446 16.0278C29.8058 15.9051 30.1207 15.4957 30.2511 15.3695C30.2878 15.334 30.3178 15.2907 30.3178 15.2733C30.3178 15.2559 30.3794 15.1784 30.4547 15.101C30.5299 15.0236 30.6175 14.9272 30.6492 14.8868C30.873 14.6016 31.16 14.2443 31.273 14.1102C31.4479 13.9026 31.4629 13.8136 31.3693 13.5392C31.3287 13.4203 31.283 13.3001 31.2677 13.2721C31.2525 13.2441 31.24 13.1944 31.24 13.1617C31.24 13.0956 30.9773 12.5627 30.8209 12.3115C30.7657 12.2228 30.708 12.1037 30.6927 12.0468C30.6774 11.9899 30.6132 11.8563 30.5501 11.7499C30.487 11.6434 30.4143 11.4987 30.3885 11.4282C30.3628 11.3576 30.3168 11.2492 30.2865 11.1872C30.2561 11.1252 30.2313 11.0489 30.2313 11.0176C30.2313 10.9284 30.3041 10.9836 30.6232 11.3152C30.7802 11.4783 30.954 11.6309 31.0095 11.6543C31.0698 11.6798 31.3243 11.9152 31.6435 12.2411C31.9368 12.5405 32.2108 12.8036 32.2525 12.8259C32.2941 12.8482 32.3359 12.8867 32.3452 12.9115C32.3546 12.9362 32.3748 12.9565 32.3902 12.9565C32.4306 12.9565 32.6798 13.2086 32.8203 13.3916C32.9712 13.5883 32.9813 13.7064 32.8551 13.8013C32.8082 13.8366 32.7596 13.8657 32.747 13.866C32.6999 13.867 32.3064 14.4086 32.3064 14.4724C32.3064 14.4879 32.2743 14.565 32.2351 14.6439C32.1958 14.7227 32.1552 14.8633 32.1449 14.9561C32.1346 15.0491 32.116 15.1187 32.1037 15.1109C32.0913 15.1031 32.0876 15.1219 32.0955 15.1525C32.1034 15.1831 32.0953 15.2358 32.0775 15.2695C32.0598 15.3033 32.0136 15.4578 31.9749 15.613C31.8993 15.9163 31.8679 15.9765 31.7851 15.9765C31.7011 15.9765 31.6773 15.8901 31.6983 15.6613C31.7136 15.4947 31.7096 15.4487 31.6797 15.4487C31.6588 15.4487 31.6346 15.4675 31.626 15.4904C31.6173 15.5134 31.5658 15.5536 31.5116 15.5798C31.4257 15.6212 31.4129 15.6414 31.4123 15.736C31.4109 15.9986 31.1603 16.5519 30.9158 16.8325C30.8148 16.9484 30.5528 17.12 30.4768 17.12C30.3997 17.12 30.2601 17.2895 30.2601 17.383C30.2601 17.417 30.2356 17.4938 30.2057 17.5536C30.1758 17.6134 30.143 17.7283 30.1328 17.809C30.1113 17.9804 29.9633 18.3079 29.8955 18.3344C29.8696 18.3445 29.8163 18.3312 29.7769 18.305C29.7176 18.2655 29.701 18.2641 29.6805 18.297C29.6669 18.3188 29.6556 18.3532 29.6553 18.3733C29.6551 18.3934 29.6117 18.4594 29.5589 18.5199C29.426 18.6723 29.29 18.8811 29.2118 19.0528C29.1663 19.1528 29.0559 19.2848 28.8558 19.4782C28.5473 19.7767 28.4604 19.8167 28.382 19.6965C28.3424 19.6359 28.3365 19.6394 28.1513 19.8358C27.9739 20.0237 27.8111 20.2243 27.5882 20.5291C27.492 20.6607 27.3468 20.9871 27.2722 21.2394C27.2484 21.32 27.2057 21.4322 27.1775 21.4886C27.1265 21.5906 26.9576 21.7341 26.918 21.7092C26.9066 21.702 26.8554 21.7401 26.8043 21.7937C26.7328 21.8687 26.7211 21.8951 26.7534 21.9078C26.7875 21.9211 26.7926 21.9716 26.7803 22.1733L26.765 22.4224L26.877 22.5595C27.1203 22.8573 27.2205 22.9613 27.3092 23.0083C27.4023 23.0575 27.8882 23.5095 28.4336 24.0541C28.5951 24.2154 28.8245 24.4313 28.9434 24.5339C29.0622 24.6364 29.2094 24.7945 29.2703 24.8852C29.4026 25.082 29.7837 25.4731 30.0689 25.7047C30.182 25.7966 30.4626 26.0581 30.6924 26.2858C30.9223 26.5136 31.2206 26.8017 31.3553 26.9262C31.49 27.0506 31.6235 27.1979 31.6519 27.2535C31.6803 27.3091 31.7139 27.3481 31.7265 27.3402C31.7391 27.3322 31.7995 27.378 31.8608 27.4418C31.9221 27.5056 31.9858 27.5583 32.0024 27.5588C32.019 27.5593 32.0974 27.6253 32.1766 27.7054C32.2557 27.7855 32.3284 27.8511 32.3381 27.8511C32.3478 27.8511 32.484 27.9842 32.6408 28.1469C32.7977 28.3096 32.9916 28.4873 33.0719 28.5418C33.3223 28.7122 33.5039 28.962 33.4044 28.9994C33.3565 29.0175 33.1422 29.3008 33.1422 29.3461C33.1422 29.3708 33.1115 29.4246 33.074 29.4658C33.0197 29.5254 33.0055 29.574 33.0043 29.7047C33.0035 29.796 32.984 29.8992 32.9604 29.9374C32.9371 29.9752 32.902 30.0589 32.8825 30.1234C32.8401 30.2635 32.7793 30.3408 32.8076 30.2186C32.8421 30.0696 32.7984 30.1363 32.75 30.3066C32.7236 30.3993 32.6961 30.495 32.6888 30.5192C32.6771 30.5583 32.6791 30.5583 32.7067 30.5192C32.7238 30.495 32.738 30.4845 32.7383 30.4958C32.7391 30.5338 32.6682 30.6802 32.6384 30.702C32.6195 30.7158 32.6214 30.7237 32.6438 30.724C32.6761 30.7244 32.6492 30.8397 32.5754 31.0176C32.5653 31.0418 32.5522 31.0877 32.5462 31.1196C32.5402 31.1515 32.5227 31.1904 32.5073 31.2061C32.4919 31.2218 32.4793 31.2591 32.4793 31.2891C32.4793 31.3191 32.4675 31.3362 32.4532 31.3272C32.4388 31.3181 32.4335 31.3359 32.4414 31.3667C32.45 31.3999 32.4313 31.4476 32.3955 31.484C32.3623 31.5178 32.3421 31.5454 32.3506 31.5454C32.3772 31.5454 32.3016 31.6721 32.1976 31.8019C32.0637 31.969 31.9999 31.9651 31.8572 31.7811C31.7951 31.7011 31.7348 31.6352 31.7231 31.6345C31.691 31.6327 31.4861 32.0642 31.4271 32.2578C31.3629 32.4686 31.2888 32.533 31.188 32.4658C31.1218 32.4217 31.1143 32.4238 31.0261 32.5107C30.9752 32.5609 30.9248 32.5951 30.9139 32.5868C30.903 32.5784 30.9008 32.5805 30.9088 32.5914C30.9296 32.6195 30.8045 32.7489 30.7747 32.7302C30.7612 32.7217 30.7501 32.7351 30.7501 32.76C30.7501 32.785 30.7042 32.8248 30.6482 32.8486C30.5362 32.8962 30.5318 32.9004 30.3504 33.124C30.2349 33.2665 30.2261 33.2889 30.2431 33.3969C30.2615 33.5145 30.2341 33.5765 29.9728 34.0083C29.9582 34.0324 29.9137 34.1135 29.8739 34.1884C29.8341 34.2633 29.7315 34.4293 29.6458 34.5574C29.5403 34.715 29.4837 34.8324 29.4707 34.9206C29.4335 35.1728 29.2812 35.3169 29.1707 35.2045C29.1291 35.1621 29.1242 34.8062 29.1638 34.7002C29.231 34.5204 29.1257 34.621 28.9287 34.9248C28.6897 35.2933 28.6509 35.3798 28.6036 35.6502C28.6022 35.6582 28.5269 35.7784 28.4363 35.9173C28.3457 36.0561 28.2715 36.1784 28.2715 36.1889C28.2715 36.1994 28.2054 36.2749 28.1247 36.3566C28.0208 36.4617 27.9821 36.5217 27.9923 36.5615C28.0002 36.5925 27.9962 36.6112 27.9834 36.6032C27.9706 36.5951 27.946 36.6247 27.9289 36.6691C27.9117 36.7134 27.8863 36.7695 27.8725 36.7936C27.7844 36.9478 27.7575 37.0258 27.7724 37.0838C27.7994 37.1889 27.7233 37.3817 27.6424 37.413C27.5633 37.4436 27.5027 37.4121 27.3239 37.2478C27.209 37.1422 27.1943 37.144 27.0956 37.2747C26.9334 37.4895 26.5069 37.9755 26.391 38.0777C26.3473 38.1162 26.3117 38.1653 26.3117 38.187C26.3117 38.2087 26.2858 38.2348 26.2541 38.245C26.2224 38.2552 26.1964 38.2759 26.1964 38.2909C26.1964 38.306 26.1714 38.3437 26.1409 38.3748C26.1104 38.4058 26.0916 38.4553 26.0991 38.4847C26.109 38.5236 25.995 38.6585 25.6821 38.978C25.4453 39.2199 25.1922 39.4697 25.1198 39.5331C25.0412 39.602 24.982 39.6816 24.9727 39.731C24.9641 39.7764 24.9499 39.8518 24.9411 39.8985C24.93 39.9575 24.9046 39.9873 24.8576 39.9964C24.7986 40.0079 24.7879 39.9957 24.7726 39.8983C24.7618 39.8293 24.7004 39.7135 24.6112 39.5935C24.532 39.4871 24.4667 39.3842 24.4661 39.3649C24.4656 39.3456 24.4348 39.2921 24.3977 39.246C24.3501 39.1867 24.3141 39.1675 24.2748 39.1802C24.1912 39.2072 24.1407 39.1502 23.9926 38.8611C23.9184 38.7162 23.8478 38.5908 23.8357 38.5825C23.8237 38.5743 23.8019 38.5454 23.7874 38.5184C23.7729 38.4915 23.6638 38.3612 23.5449 38.229C23.426 38.0968 23.3168 37.9672 23.3023 37.9409C23.2435 37.835 22.8444 37.3811 22.7963 37.3656C22.748 37.35 22.3921 36.965 22.3921 36.9283C22.3921 36.919 22.35 36.8549 22.2984 36.7858C22.2469 36.7167 22.1838 36.6278 22.1583 36.5881C22.118 36.5256 22.1055 36.5213 22.0648 36.5556C21.9807 36.6266 21.8783 36.5222 21.7469 36.2313C21.6486 36.0136 21.6153 35.9661 21.552 35.953C21.5073 35.9438 21.4198 35.8714 21.3412 35.7788C21.2087 35.6227 21.0621 35.5177 21.0268 35.5536C21.0168 35.5637 21.0087 35.5945 21.0087 35.6221C21.0087 35.6936 20.9444 35.7385 20.8703 35.7188C20.8173 35.7047 20.807 35.6812 20.807 35.5741C20.807 35.3994 20.7313 35.2189 20.6393 35.1738C20.5424 35.1264 20.4321 34.7966 20.4381 34.5726C20.4424 34.4113 20.4301 34.3886 20.2223 34.1759C20.1781 34.1307 20.0633 33.9858 19.9672 33.8539C19.8281 33.663 19.7525 33.59 19.5968 33.496C19.2514 33.2874 19.1855 33.2318 18.7836 32.8101C18.5664 32.5822 18.3815 32.3957 18.3729 32.3957C18.3643 32.3957 18.3572 32.4705 18.3572 32.5619C18.3572 32.7541 18.3051 32.8355 18.1819 32.8355C18.0725 32.8355 18.0029 32.7361 17.9425 32.4933C17.8113 31.9672 17.6048 31.4663 17.4258 31.24C17.3737 31.1741 17.2799 31.0384 17.2173 30.9384C17.1547 30.8384 17.0776 30.7173 17.0459 30.6691C16.7741 30.2566 16.6978 30.1402 16.6453 30.0576C16.5745 29.9464 16.5539 29.94 16.5326 30.0231C16.5213 30.0669 16.4981 30.0813 16.45 30.0744C16.3931 30.0662 16.3839 30.0493 16.3888 29.9621C16.3939 29.8727 16.3916 29.8689 16.3715 29.9328C16.349 30.0039 16.3477 30.003 16.3267 29.9035C16.3047 29.7989 16.1807 29.6707 16.0871 29.6554C16.0568 29.6505 16.0401 29.6256 16.0445 29.5922C16.0486 29.5618 16.037 29.4604 16.0187 29.3669C15.9923 29.2317 15.9935 29.1625 16.0248 29.0299C16.0614 28.8747 16.2273 28.5697 16.2754 28.5692C16.287 28.5691 16.3288 28.5459 16.3682 28.5176C16.4334 28.4709 16.4362 28.4604 16.3995 28.4005C16.3627 28.3404 16.3634 28.3383 16.4072 28.3751C16.4383 28.4012 16.4551 28.4038 16.4551 28.3824C16.4551 28.3643 16.4745 28.3495 16.4983 28.3495C16.5579 28.3495 16.5529 28.3728 16.4695 28.484C16.4298 28.5369 16.3974 28.6129 16.3974 28.653C16.3974 28.693 16.3818 28.731 16.3628 28.7375C16.3395 28.7454 16.3382 28.7555 16.3587 28.7684C16.3754 28.7789 16.4086 28.7648 16.4323 28.7371C16.504 28.6534 16.9781 28.1693 17.1471 28.0073C17.2341 27.9239 17.3507 27.7908 17.4061 27.7116C17.4616 27.6324 17.5524 27.5316 17.6079 27.4876C17.774 27.3559 18.301 26.8426 18.8276 26.2997C19.0999 26.0189 19.393 25.7221 19.479 25.64C19.565 25.5579 19.6558 25.4665 19.6807 25.4369C19.7057 25.4072 19.8689 25.2603 20.0432 25.1103C20.2176 24.9604 20.3815 24.8132 20.4075 24.7831C20.4334 24.7531 20.5212 24.6625 20.6025 24.5819C20.6838 24.5013 20.9349 24.2506 21.1605 24.0248C21.6445 23.5405 21.9749 23.2368 22.0316 23.224C22.054 23.2189 22.0801 23.1899 22.0896 23.1595C22.0991 23.1291 22.1319 23.0961 22.1625 23.0862C22.1931 23.0764 22.2735 23.0161 22.3412 22.9522C22.4088 22.8884 22.4998 22.8138 22.5434 22.7864C22.587 22.7591 22.6227 22.7285 22.6227 22.7184C22.6227 22.7083 22.6745 22.6462 22.7379 22.5804C22.8259 22.4892 22.8532 22.4376 22.8532 22.363C22.8532 22.3092 22.8658 22.2204 22.8813 22.1656C22.8967 22.1108 22.9016 21.9721 22.892 21.8573C22.8749 21.6506 22.8737 21.6482 22.7688 21.6026C22.623 21.5393 22.4768 21.3472 22.3074 20.9966C22.1935 20.7611 22.113 20.6439 21.9159 20.4273C21.683 20.1713 21.5813 20.0843 21.5131 20.0826C21.4972 20.0823 21.4604 20.1325 21.4313 20.1944C21.4022 20.2562 21.3482 20.3426 21.3113 20.3862C21.2744 20.4299 21.2289 20.5309 21.2101 20.6106C21.1913 20.6903 21.1642 20.7482 21.15 20.7392C21.1357 20.7302 21.124 20.7368 21.124 20.7539C21.124 20.771 21.1102 20.7849 21.0935 20.7849C21.0767 20.7849 21.0703 20.7729 21.0792 20.7581C21.0882 20.7434 21.0808 20.7263 21.0627 20.7202C21.0286 20.7086 21.0232 20.408 21.0529 20.1839C21.0648 20.0943 21.0514 20.0328 20.996 19.9236C20.9561 19.845 20.9147 19.7328 20.904 19.6744C20.8929 19.6139 20.8295 19.4993 20.7566 19.4082C20.6862 19.3202 20.5714 19.1323 20.5015 18.9906C20.4017 18.7886 20.3496 18.7172 20.2593 18.6592C20.1961 18.6186 20.097 18.5129 20.0392 18.4244C19.9247 18.2489 19.8688 18.225 19.828 18.3342C19.7714 18.4858 19.5677 18.4367 19.5677 18.2715C19.5677 18.2325 19.5482 18.1808 19.5244 18.1566C19.4996 18.1313 19.4812 18.0597 19.4812 17.9881C19.4812 17.8884 19.4581 17.832 19.3653 17.7054C19.3015 17.6185 19.2356 17.494 19.2189 17.4289C19.1794 17.2746 18.9975 16.9086 18.9013 16.7895C18.8366 16.7096 18.8191 16.7016 18.7802 16.7345C18.6904 16.8103 18.6276 16.7454 18.4859 16.4301C18.4099 16.2613 18.3383 16.1231 18.3268 16.1231C18.3152 16.1231 18.2978 16.1443 18.288 16.1702C18.2755 16.2033 18.2495 16.2119 18.2001 16.1994C18.1351 16.1828 18.1293 16.1904 18.1211 16.3035C18.1107 16.4466 18.0238 16.4917 17.9938 16.3697C17.9842 16.3308 17.9664 16.299 17.9544 16.299C17.9423 16.299 17.9257 16.247 17.9173 16.1835C17.9033 16.0777 17.8763 16.0065 17.7884 15.8445C17.6431 15.5766 17.594 15.4052 17.5633 15.058C17.5497 14.9034 17.5272 14.8124 17.4945 14.7794C17.3933 14.6773 17.0891 14.2842 17.0891 14.2556C17.0891 14.2392 17.0101 14.138 16.9134 14.0307C16.7178 13.8135 16.6628 13.65 16.7541 13.557C16.7798 13.5308 16.8009 13.4831 16.8009 13.4509C16.8009 13.361 16.9441 13.1353 17.0026 13.1329C17.0315 13.1317 18.4544 11.7102 18.9469 11.1905C19.257 10.8633 19.3947 10.7731 19.3948 10.8971C19.3949 10.9477 19.1684 11.5211 19.1372 11.5492C19.1015 11.5814 18.9336 11.9259 18.9336 11.9671C18.9336 11.9913 18.9152 12.0266 18.8927 12.0456C18.8702 12.0646 18.8287 12.1454 18.8006 12.2252C18.7724 12.3049 18.7389 12.3701 18.7262 12.3701C18.7135 12.3701 18.7031 12.3945 18.7031 12.4242C18.7031 12.454 18.6777 12.5017 18.6466 12.5303C18.6156 12.5589 18.5688 12.65 18.5427 12.7327C18.5166 12.8155 18.4655 12.9303 18.4292 12.9879C18.3558 13.1044 18.2751 13.3003 18.2007 13.5429C18.1364 13.7524 18.1782 13.8622 18.4438 14.1821C18.4933 14.2418 18.5817 14.3592 18.6401 14.443C18.7742 14.6356 19.0946 15.0681 19.1461 15.1262C19.1675 15.1504 19.2178 15.223 19.2578 15.2875C19.2978 15.352 19.3721 15.4443 19.4229 15.4927C19.4736 15.5411 19.5327 15.6147 19.5541 15.6564C19.5755 15.698 19.6387 15.7904 19.6945 15.8616C19.7503 15.9328 19.8386 16.0474 19.8908 16.1161C19.9429 16.1848 20.0213 16.2835 20.065 16.3353C20.1086 16.3872 20.1517 16.453 20.1606 16.4816C20.1695 16.5102 20.1878 16.5336 20.2013 16.5336C20.2148 16.5336 20.2554 16.583 20.2914 16.6435C20.3275 16.704 20.4096 16.8073 20.4739 16.8731C20.5382 16.939 20.6621 17.0875 20.7493 17.2031C20.8365 17.3188 20.935 17.4431 20.9682 17.4793C21.0014 17.5155 21.056 17.592 21.0896 17.6494C21.1232 17.7068 21.2168 17.819 21.2977 17.8987C21.3786 17.9783 21.4715 18.0958 21.5042 18.1597C21.5706 18.2893 22.4677 19.231 22.5248 19.231C22.5448 19.231 22.5685 19.2547 22.5776 19.2837C22.5866 19.3126 22.6458 19.3863 22.7092 19.4474C22.7726 19.5085 22.8244 19.5704 22.8244 19.5851C22.8244 19.6234 23.0256 19.8637 23.3872 20.2572C23.4836 20.362 23.606 20.5171 23.6594 20.6017C23.7852 20.8013 23.8634 20.8099 23.9278 20.631C23.9756 20.4979 23.9897 19.7293 23.9844 17.5451C23.983 16.9968 23.9841 15.7566 23.9868 14.789L23.9916 13.0298L23.9147 12.8832C23.8724 12.8026 23.8314 12.7036 23.8236 12.6633C23.7976 12.5288 23.7773 12.4495 23.7344 12.314C23.711 12.2401 23.683 12.1268 23.6721 12.0623C23.6612 11.9978 23.6236 11.8856 23.5885 11.813C23.5535 11.7405 23.4887 11.5755 23.4447 11.4465C23.4007 11.3175 23.3255 11.1262 23.2776 11.0214C23.2297 10.9166 23.1892 10.7851 23.1876 10.7292C23.1827 10.561 23.261 10.5802 23.5107 10.8082C23.7281 11.0067 23.9927 11.168 24.1009 11.168C24.1811 11.168 24.3231 11.0554 24.3231 10.9918C24.3231 10.9616 24.3356 10.929 24.3508 10.9195C24.3661 10.9099 24.3912 10.8596 24.4067 10.8078C24.4551 10.6458 24.511 10.5021 24.5419 10.4604C24.5582 10.4384 24.596 10.361 24.6259 10.2884C24.7174 10.0662 24.7805 9.99074 24.8664 10.0009C24.9146 10.0066 24.9553 10.0377 24.9781 10.0863ZM31.0593 16.1115C31.0477 16.1232 31.0387 16.1603 31.0391 16.1939C31.0399 16.2503 31.0423 16.251 31.07 16.2026C31.1023 16.1462 31.094 16.0762 31.0593 16.1115ZM18.0978 16.5007C18.0978 16.5148 18.0794 16.5419 18.0569 16.561C18.0232 16.5893 18.0187 16.5847 18.0314 16.5352C18.0466 16.4763 18.0978 16.4496 18.0978 16.5007ZM25.7444 23.5029C25.7542 23.5192 25.7315 23.562 25.6937 23.5981C25.6431 23.6465 25.6206 23.7073 25.608 23.8296C25.5772 24.1292 25.5605 25.163 25.548 27.5432C25.5371 29.6035 25.5411 29.917 25.5814 30.1209C25.6129 30.2805 25.6207 30.4086 25.6064 30.5313C25.5716 30.8318 25.5628 32.8648 25.5957 33.0182C25.6228 33.1444 25.6186 33.1695 25.5489 33.2963C25.4304 33.5121 25.3845 33.9004 25.3799 34.7266C25.3749 35.6477 25.4011 35.9698 25.4917 36.097C25.5291 36.1496 25.6002 36.2718 25.6496 36.3685C25.7577 36.5802 25.8136 36.647 25.8825 36.647C25.9678 36.647 26.0631 36.589 26.1244 36.4998C26.1906 36.4033 26.4532 36.0811 26.554 35.9727C26.5915 35.9324 26.729 35.7543 26.8595 35.5769C26.9901 35.3995 27.1615 35.1787 27.2405 35.0863C27.363 34.9429 27.5508 34.6607 27.5842 34.5698C27.5975 34.5337 28.0547 34.0282 28.1952 33.8942C28.2563 33.836 28.3299 33.7422 28.3587 33.6857C28.3875 33.6293 28.4907 33.5039 28.5879 33.4072C28.6852 33.3104 28.8581 33.0995 28.9721 32.9385C29.0861 32.7775 29.2993 32.5182 29.4459 32.3623C29.5925 32.2064 29.7125 32.0675 29.7125 32.0537C29.7125 32.0399 29.7659 31.9726 29.8311 31.9043C29.8963 31.8359 29.9406 31.7799 29.9294 31.7799C29.9183 31.7799 29.9427 31.7393 29.9838 31.6897C30.0248 31.6401 30.0584 31.5906 30.0584 31.5797C30.0584 31.5688 30.1181 31.494 30.191 31.4134C30.6645 30.8904 30.7155 30.8302 30.7621 30.7394C30.7792 30.7058 30.8796 30.5865 30.985 30.4741C31.0904 30.3618 31.2211 30.2101 31.2756 30.1369C31.33 30.0637 31.4337 29.9418 31.506 29.8661C31.8026 29.5556 31.9312 29.182 31.8457 28.8788C31.8163 28.7745 31.7893 28.7451 31.4547 28.4533C31.3446 28.3572 31.1424 28.1725 31.0055 28.0428C30.8686 27.9132 30.7065 27.7612 30.6452 27.7052C30.584 27.6491 30.4361 27.5106 30.3165 27.3973C30.0715 27.1653 29.8936 27.0047 29.7146 26.8542C29.5336 26.702 29.1883 26.3593 29.1169 26.261C29.0825 26.2137 29.0165 26.1464 28.9701 26.1114C28.8354 26.0099 28.4115 25.6122 27.9572 25.1612C27.7258 24.9316 27.5204 24.7436 27.5005 24.7434C27.4807 24.7433 27.4645 24.7234 27.4645 24.6992C27.4645 24.675 27.4504 24.6552 27.4331 24.6552C27.4158 24.6552 27.2948 24.5463 27.1642 24.4133C27.0335 24.2802 26.8457 24.0988 26.7467 24.0101C26.6477 23.9215 26.5236 23.8065 26.471 23.7547C26.3139 23.6001 26.1373 23.5162 25.922 23.4937C25.7929 23.4803 25.7325 23.4834 25.7444 23.5029ZM23.7467 23.5997C23.7229 23.6153 23.6678 23.6283 23.6242 23.6285C23.5806 23.6288 23.5449 23.6422 23.5449 23.6583C23.5449 23.6744 23.5275 23.6876 23.5063 23.6876C23.4851 23.6876 23.4276 23.7305 23.3786 23.7829C23.3295 23.8353 23.2166 23.9442 23.1277 24.0248C23.0387 24.1054 22.9276 24.2073 22.8806 24.2512C22.8337 24.2951 22.724 24.3858 22.6369 24.4526C22.5498 24.5195 22.4786 24.583 22.4786 24.5938C22.4786 24.6045 22.4429 24.6354 22.3993 24.6626C22.2924 24.7291 22.0462 24.9687 22.0462 25.0062C22.0462 25.0228 22.0365 25.0365 22.0246 25.0368C22.0127 25.037 21.9122 25.1247 21.8013 25.2318C21.5877 25.4377 21.0079 25.944 20.8578 26.0556C20.6837 26.185 19.8559 26.9856 19.8559 27.0246C19.8559 27.0486 19.1969 27.7045 19.1727 27.7045C19.1429 27.7045 18.634 28.243 18.6324 28.2762C18.6316 28.2923 18.6116 28.3055 18.5878 28.3055C18.564 28.3055 18.5251 28.3482 18.5013 28.4004C18.4774 28.4528 18.442 28.4893 18.422 28.4819C18.4022 28.4746 18.3421 28.5078 18.2885 28.5556C18.235 28.6035 18.1766 28.6427 18.1589 28.6427C18.1411 28.6427 18.1266 28.6625 18.1266 28.6867C18.1266 28.716 18.0978 28.7307 18.0402 28.7307C17.9926 28.7307 17.9537 28.7432 17.9537 28.7585C17.9537 28.7738 17.9125 28.8255 17.862 28.8735C17.7828 28.9488 17.7687 28.9847 17.7577 29.1388C17.7471 29.2889 17.7524 29.3171 17.7918 29.3171C17.8174 29.3171 17.8384 29.3352 17.8384 29.3575C17.8384 29.3797 17.8597 29.4157 17.8856 29.4376C17.9115 29.4596 17.9623 29.525 17.9983 29.5832C18.0344 29.6413 18.0813 29.7075 18.1025 29.7302C18.1475 29.7784 18.3284 30.0751 18.3284 30.1007C18.3284 30.1102 18.3965 30.1923 18.4797 30.283C18.6433 30.4614 18.7078 30.5406 18.8165 30.6968C18.8551 30.7523 18.9413 30.8471 19.008 30.9075C19.0747 30.9678 19.1573 31.0718 19.1915 31.1386C19.2257 31.2053 19.4054 31.4231 19.5908 31.6225C19.7762 31.822 19.9279 31.999 19.9279 32.016C19.9279 32.033 19.9593 32.0801 19.9978 32.1208C20.0362 32.1613 20.1075 32.2583 20.1563 32.3362C20.205 32.4142 20.3439 32.5846 20.4647 32.7149C20.5856 32.8453 20.7046 32.983 20.7291 33.0211C20.7536 33.0591 20.8196 33.1343 20.8758 33.1883C20.932 33.2422 20.9972 33.3333 21.0206 33.3907C21.0441 33.4482 21.1733 33.6107 21.3078 33.752C21.4423 33.8933 21.6106 34.0978 21.682 34.2065C21.7533 34.3151 21.9169 34.5228 22.0455 34.6679C22.1742 34.8131 22.2891 34.945 22.301 34.9611C22.3129 34.9773 22.3869 35.0645 22.4654 35.155C22.544 35.2455 22.6501 35.3709 22.7012 35.4336C22.7523 35.4963 22.8334 35.5955 22.8813 35.654C22.9293 35.7126 22.9685 35.7751 22.9685 35.7928C22.9685 35.8106 23.0696 35.9408 23.1932 36.0821C23.3167 36.2235 23.4686 36.4184 23.5307 36.5151C23.6665 36.7268 23.7229 36.7773 23.8848 36.8323C23.9975 36.8707 24.0141 36.8697 24.0721 36.822C24.1347 36.7704 24.1357 36.7577 24.1355 36.0266C24.1354 35.618 24.126 34.9802 24.1147 34.6093C24.1033 34.2384 24.0873 32.9916 24.0791 31.8386C24.0708 30.6856 24.0524 29.4189 24.038 29.0239C24.0237 28.6288 24.0167 27.7118 24.0224 26.9861C24.037 25.1502 23.9912 23.8189 23.9066 23.6217C23.8824 23.5651 23.8136 23.5557 23.7467 23.5997ZM32.7872 30.3781C32.778 30.4015 32.7712 30.3945 32.7698 30.3603C32.7685 30.3294 32.7753 30.3121 32.7849 30.3219C32.7945 30.3316 32.7955 30.3569 32.7872 30.3781ZM32.6257 30.6242C32.6271 30.6584 32.6339 30.6653 32.6431 30.642C32.6514 30.6208 32.6504 30.5955 32.6408 30.5858C32.6312 30.576 32.6244 30.5933 32.6257 30.6242ZM18.0118 31.5825C18.0116 31.6109 18.0564 31.6835 18.1115 31.7437C18.2431 31.8878 18.2432 31.8034 18.1116 31.648C18.0405 31.5641 18.0121 31.5455 18.0118 31.5825ZM24.3062 32.7768C24.3062 33.0751 24.3105 33.1972 24.3157 33.048C24.321 32.8989 24.321 32.6548 24.3157 32.5056C24.3105 32.3565 24.3062 32.4785 24.3062 32.7768ZM18.9336 32.356C18.9336 32.4127 19.145 32.6155 19.1591 32.5723C19.1703 32.5383 19.0267 32.3516 18.9697 32.3258C18.9492 32.3166 18.9336 32.3297 18.9336 32.356ZM21.1816 35.1664C21.1816 35.2228 21.1932 35.269 21.2073 35.269C21.2397 35.269 21.2756 35.1292 21.2529 35.0917C21.2165 35.0319 21.1816 35.0685 21.1816 35.1664ZM26.8881 37.1032C26.8881 37.1284 26.9011 37.1408 26.9169 37.1308C26.9328 37.1209 26.9457 37.1003 26.9457 37.0851C26.9457 37.0699 26.9328 37.0575 26.9169 37.0575C26.9011 37.0575 26.8881 37.0781 26.8881 37.1032ZM26.7512 37.2115C26.7552 37.2316 26.7435 37.2453 26.7254 37.2418C26.7056 37.238 26.6983 37.259 26.7073 37.2937C26.7193 37.3406 26.7303 37.3451 26.7635 37.3171C26.7862 37.2979 26.8175 37.2581 26.8331 37.2285C26.8561 37.1846 26.8506 37.1748 26.8027 37.1748C26.7704 37.1748 26.7473 37.1913 26.7512 37.2115ZM26.5879 37.4412C26.5467 37.4909 26.5204 37.5437 26.5293 37.5585C26.5383 37.5732 26.5262 37.5853 26.5023 37.5853C26.4785 37.5853 26.442 37.6212 26.4214 37.6651C26.4007 37.7089 26.3537 37.76 26.3171 37.7787C26.2153 37.8302 26.0871 37.9656 26.0571 38.0529C26.0317 38.1273 26.0345 38.1306 26.1134 38.1188C26.159 38.112 26.1964 38.0947 26.1964 38.0803C26.1964 38.066 26.2483 38.0066 26.3117 37.9483C26.3751 37.89 26.427 37.8241 26.427 37.8018C26.427 37.7795 26.4398 37.7612 26.4554 37.7612C26.4711 37.7612 26.5296 37.6688 26.5855 37.556C26.6414 37.4431 26.6816 37.3507 26.6749 37.3507C26.6681 37.3507 26.629 37.3914 26.5879 37.4412Z" fill="#E1D4BB"/>
</svg>
