<svg width="50" height="50" viewBox="0 0 50 50" fill="none" xmlns="http://www.w3.org/2000/svg">
<circle cx="25" cy="25" r="24.5" stroke="#E1D4BB"/>
<path d="M12 34.4561C12.1077 33.9822 12.2585 33.5407 12.6031 33.1745C13.1954 32.5499 13.9169 32.313 14.7462 32.4745C15.5647 32.636 16.1462 33.1422 16.437 33.9284C16.9431 35.3176 16.017 36.7822 14.6062 36.9653C14.5847 36.9653 14.5631 36.9869 14.5416 36.9976C14.38 36.9976 14.2185 36.9976 14.057 36.9976C14.0246 36.9869 14.0031 36.9653 13.9708 36.9653C13.3785 36.8792 12.9046 36.5992 12.5169 36.1361C12.2262 35.7915 12.1077 35.3822 12.0108 34.9515C12 34.7899 12 34.6176 12 34.4561Z" fill="#E1D4BB"/>
<path d="M36.2765 12.0003C36.718 11.9896 37.0304 12.248 36.9981 12.6465C36.9011 13.7774 36.8042 14.9191 36.6642 16.0499C36.6103 16.5238 36.3626 16.9223 36.0287 17.2562C31.753 21.532 27.4772 25.8078 23.1906 30.0835C22.8029 30.4713 22.3721 30.4713 21.9736 30.0835C21.7582 29.8681 21.5428 29.6635 21.3381 29.4481C20.9504 29.0496 20.9504 28.6188 21.3489 28.2311C22.8998 26.6802 24.4615 25.1292 26.0124 23.5676C27.9834 21.5966 29.9543 19.6364 31.9253 17.6655C31.9576 17.6332 31.9899 17.6008 32.033 17.5578C32.2807 17.2993 32.3238 17.0623 32.1299 16.8792C31.9361 16.6854 31.7099 16.7177 31.4514 16.9762C27.908 20.5088 24.3754 24.0522 20.8212 27.5848C20.6704 27.7356 20.4658 27.8541 20.2719 27.9187C20.0134 27.9941 19.7765 27.8864 19.5826 27.6926C19.3457 27.4556 19.1087 27.2294 18.8718 26.9817C18.5271 26.6263 18.5271 26.1955 18.8718 25.8293C18.9256 25.7754 18.9795 25.7216 19.0225 25.6785C23.2229 21.4781 27.4341 17.2777 31.6345 13.0773C32.0976 12.6142 32.6361 12.345 33.2931 12.2804C34.2947 12.1834 35.3071 12.0865 36.2765 12.0003Z" fill="#E1D4BB"/>
<path d="M19.8948 32.0006C19.3132 32.3776 18.7639 32.7222 18.2254 33.0777C17.8592 33.3146 17.6976 33.2931 17.4715 32.9161C17.1268 32.3345 16.6637 31.8822 16.0821 31.5375C15.7375 31.3329 15.6944 31.1498 15.9098 30.7944C16.2221 30.2774 16.5345 29.7604 16.8576 29.2542C16.933 29.125 16.933 29.0496 16.8253 28.9419C16.2329 28.3711 15.6621 27.7787 15.0697 27.2079C14.9943 27.1325 14.8651 27.0786 14.7574 27.0786C14.1865 27.0679 13.6157 27.0786 13.0449 27.0679C12.6033 27.0571 12.3125 26.7771 12.3018 26.3893C12.3018 26.0339 12.571 25.7216 12.9372 25.7216C13.7127 25.7108 14.4881 25.7 15.2528 25.7324C15.4467 25.7431 15.6621 25.8939 15.8021 26.0339C17.5899 27.811 19.3778 29.5989 21.1657 31.376C21.7688 31.9791 22.3612 32.5715 22.9643 33.1638C23.1474 33.3469 23.2551 33.5515 23.2551 33.81C23.2551 34.5101 23.2659 35.2102 23.2551 35.9102C23.2443 36.4272 22.8674 36.7503 22.415 36.6426C22.1027 36.5672 21.898 36.3087 21.898 35.9641C21.8873 35.3933 21.9088 34.8224 21.8873 34.2516C21.8873 34.1224 21.8226 33.9608 21.7365 33.8747C21.1441 33.25 20.5302 32.6361 19.8948 32.0006Z" fill="#E1D4BB"/>
</svg>
