<svg width="50" height="50" viewBox="0 0 50 50" fill="none" xmlns="http://www.w3.org/2000/svg">
<circle cx="25" cy="25" r="24.5" stroke="#E1D4BB"/>
<path fill-rule="evenodd" clip-rule="evenodd" d="M29.4287 12.1365C27.9227 12.4797 27.4968 12.7859 24.735 15.5097C23.2919 16.9329 22.0075 18.2983 21.7676 18.6642C20.6205 20.4132 20.5103 22.8214 21.486 24.8142C21.9528 25.7676 23.2147 27.0385 24.1774 27.5247L24.8848 27.882L25.0725 27.4672C25.326 26.9064 25.3184 25.8729 25.0566 25.2961C24.944 25.0485 24.6823 24.6567 24.4747 24.4254C23.754 23.6225 23.5794 23.1478 23.5794 21.9915C23.5794 21.1194 23.6193 20.881 23.8342 20.4678C24.1957 19.773 28.5292 15.4254 29.2382 15.0461C29.7183 14.7893 29.9043 14.7549 30.8164 14.7545C31.7573 14.754 31.9022 14.7827 32.4276 15.0737C33.0833 15.437 33.6308 15.9986 33.9948 16.6809C34.2042 17.0737 34.2441 17.3135 34.2443 18.1823C34.2448 19.6798 34.1312 19.8624 31.5782 22.4639C29.5828 24.4972 29.4592 24.6471 29.5103 24.9688C29.5403 25.157 29.5647 25.8375 29.5647 26.4811C29.5647 27.1246 29.5915 27.6511 29.6242 27.6511C29.6569 27.651 29.9457 27.4857 30.2658 27.284C30.9909 26.8266 35.5825 22.2698 36.0463 21.5471C36.8258 20.3323 37.1696 18.5967 36.9194 17.1393C36.645 15.5411 35.4603 13.7596 34.1476 12.9716C32.7075 12.107 30.9345 11.7932 29.4287 12.1365ZM24.4537 21.1406C24.3615 21.4507 24.2862 21.8348 24.2862 21.994C24.2862 22.5718 24.6042 23.3196 25.109 23.9285C25.8795 24.8579 26.0784 25.3641 26.0803 26.3993C26.0827 27.7287 25.8357 28.158 23.9769 30.0576L22.4447 31.6234L22.9668 31.6558C23.4861 31.6879 23.4898 31.6908 23.6427 32.1965C23.7863 32.6712 23.8289 32.7127 24.2862 32.8235C24.7262 32.93 24.7483 32.9496 24.5039 33.0159C23.9435 33.168 23.6946 33.1014 23.3884 32.7178L23.0893 32.3429L22.5537 32.5654C22.0388 32.7794 22.0039 32.8222 21.6556 33.6662C20.9785 35.3071 19.927 36.1351 18.4091 36.2231C17.2966 36.2874 16.5042 35.9907 15.7356 35.2221C14.9657 34.4522 14.6697 33.6604 14.7364 32.5485C14.7765 31.8769 14.8832 31.5008 15.3377 30.4263L15.8901 29.1202L15.5146 29.0188C15.1914 28.9315 15.1188 28.8481 14.9933 28.4202C14.8481 27.925 14.8458 27.9232 14.4032 27.9591L13.9588 27.995L13.9256 27.4149L13.8924 26.8347L13.0591 28.9026C12.1031 31.2747 11.9295 31.9926 12.0219 33.1906C12.2353 35.959 14.2032 38.2012 16.9568 38.8139C18.8649 39.2383 20.891 38.6791 22.3767 37.3177C23.2525 36.5152 23.6205 35.935 24.3048 34.2766C24.8546 32.9448 24.8628 32.9326 26.001 31.7911C27.3853 30.4025 27.7681 29.9405 28.1275 29.2244C28.5936 28.2953 28.7892 27.4602 28.7892 26.3993C28.7892 24.668 28.2079 23.277 26.9648 22.0338C26.2822 21.3513 25.0936 20.5766 24.7289 20.5766C24.6697 20.5766 24.5458 20.8305 24.4537 21.1406ZM19.4618 21.0237C18.7642 21.3917 17.3344 22.8415 16.9837 23.5361L16.6687 24.1601L17.1114 24.2792L17.5539 24.3984L17.5256 24.9317C17.5007 25.4023 17.533 25.4931 17.8004 25.7033L18.1034 25.9418L19.1391 24.9061L20.1747 23.8704L20.0513 22.9434C19.9835 22.4335 19.9603 21.7413 19.9998 21.4053C20.0396 21.0673 20.0285 20.7965 19.975 20.7991C19.9218 20.8018 19.691 20.9028 19.4618 21.0237ZM15.2038 22.5494C15.1615 23.0358 15.102 23.5134 15.072 23.6105C15.0419 23.7077 15.1955 23.469 15.4135 23.0799C15.8077 22.3761 15.8088 22.3706 15.623 22.0187C15.5203 21.8242 15.4013 21.665 15.3587 21.665C15.3159 21.665 15.2462 22.063 15.2038 22.5494ZM12.0967 23.8899C12.0967 23.9292 12.17 24.1032 12.2597 24.2766L12.4227 24.5919L12.9943 24.4233C13.9085 24.1536 13.9275 24.0943 13.1269 24.0086C12.719 23.9649 12.3203 23.9043 12.241 23.8738C12.1616 23.8433 12.0967 23.8506 12.0967 23.8899ZM14.2397 25.444C14.0716 25.4692 13.9501 25.5386 13.9699 25.5979C14.0236 25.7589 15.3617 26.5858 15.3617 26.458C15.3617 26.3975 15.3026 26.1269 15.2304 25.8567C15.0902 25.3327 15.0611 25.3205 14.2397 25.444ZM18.1804 26.9243C18.0213 27.2734 18.0779 27.3526 18.453 27.3054L18.7344 27.27L18.5239 26.951L18.3136 26.632L18.1804 26.9243ZM17.108 29.1747C17.1059 29.9903 17.2118 30.1168 17.5126 29.658L17.756 29.2868L17.4327 28.9314L17.1095 28.5761L17.108 29.1747Z" fill="#E1D4BB"/>
</svg>
